<?xml version="1.0" encoding="UTF-8" standalone="no"?>
<svg
   width="38.294613mm"
   height="7.8287668mm"
   viewBox="0 0 38.294613 7.8287668"
   version="1.1"
   id="svg12547"
   inkscape:version="1.4.2 (ebf0e940d0, 2025-05-08)"
   sodipodi:docname="acsos-logo.svg"
   xmlns:inkscape="http://www.inkscape.org/namespaces/inkscape"
   xmlns:sodipodi="http://sodipodi.sourceforge.net/DTD/sodipodi-0.dtd"
   xmlns:xlink="http://www.w3.org/1999/xlink"
   xmlns="http://www.w3.org/2000/svg"
   xmlns:svg="http://www.w3.org/2000/svg"
   xmlns:rdf="http://www.w3.org/1999/02/22-rdf-syntax-ns#"
   xmlns:cc="http://creativecommons.org/ns#"
   xmlns:dc="http://purl.org/dc/elements/1.1/">
  <defs
     id="defs12541">
    <linearGradient
       inkscape:collect="always"
       id="linearGradient13233">
      <stop
         style="stop-color:#2a7fff;stop-opacity:1;"
         offset="0"
         id="stop13229" />
      <stop
         style="stop-color:#2a7fff;stop-opacity:0.36470588;"
         offset="0.81389368"
         id="stop13239" />
      <stop
         style="stop-color:#2a7fff;stop-opacity:0.36078431;"
         offset="0.94977272"
         id="stop13237" />
      <stop
         style="stop-color:#2a7fff;stop-opacity:0;"
         offset="1"
         id="stop13231" />
    </linearGradient>
    <linearGradient
       inkscape:collect="always"
       xlink:href="#linearGradient13233"
       id="linearGradient12525"
       x1="234.65329"
       y1="271.62186"
       x2="129.93387"
       y2="251.34081"
       gradientUnits="userSpaceOnUse" />
  </defs>
  <sodipodi:namedview
     id="base"
     pagecolor="#ffffff"
     bordercolor="#666666"
     borderopacity="1.0"
     inkscape:pageopacity="0.0"
     inkscape:pageshadow="2"
     inkscape:zoom="11.647851"
     inkscape:cx="45.974148"
     inkscape:cy="11.890606"
     inkscape:document-units="mm"
     inkscape:current-layer="layer1"
     inkscape:document-rotation="0"
     showgrid="false"
     fit-margin-top="0"
     fit-margin-left="0"
     fit-margin-right="0"
     fit-margin-bottom="0"
     inkscape:window-width="3840"
     inkscape:window-height="2054"
     inkscape:window-x="3840"
     inkscape:window-y="0"
     inkscape:window-maximized="1"
     inkscape:showpageshadow="2"
     inkscape:pagecheckerboard="0"
     inkscape:deskcolor="#d1d1d1" />
  <metadata
     id="metadata12544">
    <rdf:RDF>
      <cc:Work
         rdf:about="">
        <dc:format>image/svg+xml</dc:format>
        <dc:type
           rdf:resource="http://purl.org/dc/dcmitype/StillImage" />
      </cc:Work>
    </rdf:RDF>
  </metadata>
  <g
     inkscape:label="Layer 1"
     inkscape:groupmode="layer"
     id="layer1"
     transform="translate(-30.35785,-154.05993)">
    <path
       id="text13226"
       style="font-size:10.5833px;line-height:0;font-family:Audiowide;-inkscape-font-specification:Audiowide;letter-spacing:-0.992188px;word-spacing:0px;fill:#ffffff;fill-opacity:1;stroke:#000000;stroke-width:0.211667"
       d="m 55.923629,154.16576 c -0.444416,0 -0.856108,0.0775 -1.235067,0.23254 -0.378959,0.15503 -0.706245,0.37035 -0.981852,0.64596 -0.275607,0.27216 -0.492649,0.59944 -0.651123,0.98185 -0.155033,0.37896 -0.232544,0.79237 -0.232544,1.24023 v 1.41594 c 0,0.45131 0.07751,0.86644 0.232544,1.2454 0.158474,0.37896 0.375516,0.70624 0.651123,0.98185 0.275607,0.27561 0.602893,0.49093 0.981852,0.64596 0.378959,0.15158 0.790651,0.22737 1.235067,0.22737 h 1.81901 c 0.444416,0 0.854386,-0.0758 1.2299,-0.22737 0.378959,-0.15503 0.706245,-0.37035 0.981852,-0.64596 0.275607,-0.27561 0.490926,-0.60289 0.645955,-0.98185 0.155034,-0.37896 0.232544,-0.79409 0.232544,-1.2454 v -1.41594 c 0,-0.44786 -0.07751,-0.86127 -0.232544,-1.24023 -0.155029,-0.38241 -0.370348,-0.70969 -0.645955,-0.98185 -0.275607,-0.27561 -0.602893,-0.49093 -0.981852,-0.64596 -0.375514,-0.15505 -0.785484,-0.23254 -1.2299,-0.23254 z m -21.754744,0.12299 c -0.533989,0 -1.02664,0.0913 -1.477946,0.27388 -0.451306,0.18259 -0.842327,0.43753 -1.173055,0.76481 -0.330728,0.32728 -0.589112,0.71831 -0.775147,1.17306 -0.186032,0.45475 -0.279053,0.95257 -0.279053,1.49345 v 3.7052 h 1.343588 v -1.81901 h 4.723226 v 1.81901 h 1.343587 v -6.73344 c 0,-0.093 -0.01723,-0.18085 -0.05168,-0.26355 -0.03445,-0.0827 -0.08268,-0.15504 -0.144694,-0.21704 -0.06201,-0.062 -0.134361,-0.1102 -0.217041,-0.1447 -0.08268,-0.0345 -0.17053,-0.0517 -0.26355,-0.0517 z m 6.061645,0 c -0.230821,0 -0.437528,0.0293 -0.620117,0.0879 -0.182589,0.0586 -0.34451,0.13781 -0.485759,0.23771 -0.137803,0.0965 -0.256657,0.20842 -0.356567,0.33589 -0.09991,0.12747 -0.180869,0.26183 -0.242879,0.40308 -0.062,0.1378 -0.108517,0.27906 -0.139527,0.42375 -0.02756,0.14125 -0.04134,0.27389 -0.04134,0.39791 v 3.63802 c 0,0.23082 0.02928,0.43925 0.08785,0.62528 0.05857,0.18259 0.136084,0.34451 0.232544,0.48576 0.09991,0.13781 0.213597,0.25667 0.341065,0.35657 0.127468,0.0965 0.260105,0.17571 0.397908,0.23771 0.141249,0.062 0.282499,0.10853 0.423747,0.13953 0.144694,0.0275 0.279053,0.0413 0.403076,0.0413 h 4.878255 5.183146 c 0.144693,0 0.298002,-0.0172 0.459921,-0.0517 0.165365,-0.0344 0.327285,-0.0878 0.485758,-0.1602 0.158474,-0.0724 0.311781,-0.16536 0.45992,-0.27905 0.148139,-0.11369 0.277331,-0.25149 0.387574,-0.41341 0.110239,-0.16192 0.198089,-0.34796 0.263549,-0.55811 0.0689,-0.2136 0.103353,-0.45303 0.103353,-0.7183 0,-0.26527 -0.03272,-0.50298 -0.09818,-0.71313 -0.06546,-0.21015 -0.155029,-0.39619 -0.268717,-0.55811 -0.110243,-0.16192 -0.237713,-0.29972 -0.382406,-0.41341 -0.144694,-0.11713 -0.298001,-0.21359 -0.45992,-0.28939 -0.158474,-0.0758 -0.318672,-0.13086 -0.480591,-0.16536 -0.161919,-0.038 -0.315227,-0.059 -0.45992,-0.062 h -0.01034 -3.09025 c -0.254937,0 -0.454754,-0.0741 -0.599447,-0.22221 -0.141253,-0.15159 -0.211873,-0.35657 -0.211873,-0.61495 0,-0.25493 0.07062,-0.45992 0.211873,-0.61495 0.144693,-0.15504 0.34451,-0.23255 0.599447,-0.23255 h 4.573364 v -1.34358 h -4.573364 c -0.217041,0 -0.451309,0.0396 -0.7028,0.11885 -0.251491,0.0758 -0.485758,0.20154 -0.702799,0.37724 -0.213595,0.17225 -0.392742,0.39791 -0.537435,0.67696 -0.141253,0.27561 -0.211873,0.61496 -0.211873,1.01803 0,0.40307 0.07062,0.74414 0.211873,1.02319 0.144693,0.27905 0.32384,0.50471 0.537435,0.67696 0.217041,0.17225 0.451308,0.29804 0.702799,0.37724 0.251491,0.0758 0.485759,0.11369 0.7028,0.11369 h 3.09025 c 0.124023,0 0.235987,0.0207 0.335897,0.062 0.103353,0.0413 0.189482,0.0999 0.258382,0.1757 0.07234,0.0758 0.127475,0.16537 0.165365,0.26872 0.03789,0.10335 0.05684,0.21703 0.05684,0.34106 0,0.25493 -0.07235,0.45819 -0.217041,0.60978 -0.141248,0.15157 -0.341066,0.22738 -0.599447,0.22738 H 45.108785 40.23053 c -0.172254,0 -0.306616,-0.0465 -0.403076,-0.13953 -0.09302,-0.0965 -0.139526,-0.23082 -0.139526,-0.40307 v -3.62769 c 0,-0.18259 0.04651,-0.32041 0.139526,-0.41341 0.09302,-0.093 0.227377,-0.13953 0.403076,-0.13953 h 4.318083 v -1.34358 z m 23.065776,0 c -0.217041,0 -0.45131,0.0396 -0.7028,0.11885 -0.251492,0.0758 -0.485759,0.20154 -0.702799,0.37724 -0.213595,0.17225 -0.392741,0.39791 -0.537435,0.67696 -0.141252,0.27561 -0.211874,0.61496 -0.211874,1.01803 0,0.40307 0.07063,0.74414 0.211874,1.02319 0.144694,0.27905 0.32384,0.50471 0.537435,0.67696 0.21704,0.17225 0.451307,0.29804 0.702799,0.37724 0.25149,0.0758 0.485759,0.11369 0.7028,0.11369 h 3.09025 c 0.124022,0 0.235987,0.0207 0.335897,0.062 0.103352,0.0413 0.189482,0.0999 0.258382,0.1757 0.07234,0.0758 0.127475,0.16537 0.165365,0.26872 0.03789,0.10335 0.05684,0.21703 0.05684,0.34106 0,0.25493 -0.07235,0.45819 -0.217041,0.60978 -0.141248,0.15157 -0.341066,0.22738 -0.599447,0.22738 H 61.20341 v 1.34359 h 5.183146 c 0.144693,0 0.298001,-0.0172 0.459921,-0.0517 0.165364,-0.0344 0.327284,-0.0878 0.485758,-0.1602 0.158474,-0.0724 0.311781,-0.16536 0.45992,-0.27905 0.148138,-0.11369 0.27733,-0.25149 0.387573,-0.41341 0.110239,-0.16192 0.19809,-0.34796 0.26355,-0.55811 0.0689,-0.2136 0.103353,-0.45303 0.103353,-0.7183 0,-0.26527 -0.03272,-0.50298 -0.09819,-0.71313 -0.06546,-0.21015 -0.15503,-0.39619 -0.268718,-0.55811 -0.110243,-0.16192 -0.237712,-0.29972 -0.382405,-0.41341 -0.144694,-0.11713 -0.298001,-0.21359 -0.45992,-0.28939 -0.158474,-0.0758 -0.318673,-0.13086 -0.480591,-0.16536 -0.16192,-0.038 -0.315227,-0.059 -0.45992,-0.062 h -0.01034 -3.09025 c -0.254936,0 -0.454753,-0.0741 -0.599447,-0.22221 -0.141252,-0.15159 -0.211873,-0.35657 -0.211873,-0.61495 0,-0.25493 0.07062,-0.45992 0.211873,-0.61495 0.144694,-0.15504 0.344511,-0.23255 0.599447,-0.23255 h 4.573364 v -1.34358 z m -7.372677,1.22059 h 1.81901 c 0.258381,0 0.494373,0.0431 0.707968,0.12919 0.21704,0.0827 0.401353,0.20154 0.552937,0.35657 0.155029,0.15159 0.273888,0.3359 0.356568,0.55294 0.08613,0.21359 0.129191,0.45303 0.129191,0.7183 v 1.41594 c 0,0.26527 -0.04306,0.50643 -0.129191,0.72347 -0.08268,0.21359 -0.201539,0.3979 -0.356568,0.55293 -0.155029,0.15159 -0.341064,0.27047 -0.558105,0.35657 -0.213595,0.0827 -0.451309,0.12403 -0.713135,0.12403 h -1.808675 c -0.261826,0 -0.501261,-0.0413 -0.718302,-0.12403 -0.213595,-0.0861 -0.397909,-0.20498 -0.552938,-0.35657 -0.155029,-0.15503 -0.275605,-0.33934 -0.361735,-0.55293 -0.08268,-0.21704 -0.124024,-0.4582 -0.124024,-0.72347 v -1.41594 c 0,-0.26527 0.04134,-0.50471 0.124024,-0.7183 0.08613,-0.21704 0.206706,-0.40135 0.361735,-0.55294 0.155029,-0.15503 0.339343,-0.27387 0.552938,-0.35657 0.217041,-0.0861 0.456476,-0.12919 0.718302,-0.12919 z m -21.754744,0.12299 h 2.361613 v 2.90422 h -4.723226 v -0.5426 c 0,-0.37552 0.05168,-0.69419 0.155029,-0.95602 0.106797,-0.26527 0.241157,-0.48576 0.403076,-0.66146 0.161919,-0.1757 0.339342,-0.31351 0.532267,-0.41341 0.192925,-0.0999 0.375517,-0.17391 0.547771,-0.22221 0.175699,-0.0483 0.329007,-0.0776 0.45992,-0.0879 0.134359,-0.0137 0.22221,-0.0207 0.26355,-0.0207 z" />
  </g>
</svg>
