<?xml version="1.0" encoding="UTF-8" standalone="no"?>
<svg
   width="38.294613mm"
   height="10.918779mm"
   viewBox="0 0 38.294613 10.918779"
   version="1.1"
   id="svg12547"
   inkscape:version="1.4.2 (ebf0e940d0, 2025-05-08)"
   sodipodi:docname="acsos-logo-2026.svg"
   xmlns:inkscape="http://www.inkscape.org/namespaces/inkscape"
   xmlns:sodipodi="http://sodipodi.sourceforge.net/DTD/sodipodi-0.dtd"
   xmlns:xlink="http://www.w3.org/1999/xlink"
   xmlns="http://www.w3.org/2000/svg"
   xmlns:svg="http://www.w3.org/2000/svg"
   xmlns:rdf="http://www.w3.org/1999/02/22-rdf-syntax-ns#"
   xmlns:cc="http://creativecommons.org/ns#"
   xmlns:dc="http://purl.org/dc/elements/1.1/">
  <defs
     id="defs12541">
    <linearGradient
       inkscape:collect="always"
       id="linearGradient13233">
      <stop
         style="stop-color:#2a7fff;stop-opacity:1;"
         offset="0"
         id="stop13229" />
      <stop
         style="stop-color:#2a7fff;stop-opacity:0.36470588;"
         offset="0.81389368"
         id="stop13239" />
      <stop
         style="stop-color:#2a7fff;stop-opacity:0.36078431;"
         offset="0.94977272"
         id="stop13237" />
      <stop
         style="stop-color:#2a7fff;stop-opacity:0;"
         offset="1"
         id="stop13231" />
    </linearGradient>
    <linearGradient
       inkscape:collect="always"
       xlink:href="#linearGradient13233"
       id="linearGradient12525"
       x1="234.65329"
       y1="271.62186"
       x2="129.93387"
       y2="251.34081"
       gradientUnits="userSpaceOnUse" />
  </defs>
  <sodipodi:namedview
     id="base"
     pagecolor="#ffffff"
     bordercolor="#666666"
     borderopacity="1.0"
     inkscape:pageopacity="0.0"
     inkscape:pageshadow="2"
     inkscape:zoom="8"
     inkscape:cx="2.5625"
     inkscape:cy="7.6875"
     inkscape:document-units="mm"
     inkscape:current-layer="layer1"
     inkscape:document-rotation="0"
     showgrid="false"
     fit-margin-top="0"
     fit-margin-left="0"
     fit-margin-right="0"
     fit-margin-bottom="0"
     inkscape:window-width="3840"
     inkscape:window-height="2054"
     inkscape:window-x="3840"
     inkscape:window-y="0"
     inkscape:window-maximized="1"
     inkscape:showpageshadow="2"
     inkscape:pagecheckerboard="0"
     inkscape:deskcolor="#d1d1d1" />
  <metadata
     id="metadata12544">
    <rdf:RDF>
      <cc:Work
         rdf:about="">
        <dc:format>image/svg+xml</dc:format>
        <dc:type
           rdf:resource="http://purl.org/dc/dcmitype/StillImage" />
      </cc:Work>
    </rdf:RDF>
  </metadata>
  <g
     inkscape:label="Layer 1"
     inkscape:groupmode="layer"
     id="layer1"
     transform="translate(-30.35785,-154.05993)">
    <path
       id="text13226"
       style="font-size:10.5833px;line-height:0;font-family:Audiowide;-inkscape-font-specification:Audiowide;letter-spacing:-0.992188px;word-spacing:0px;fill:#ffffff;fill-opacity:1;stroke:#000000;stroke-width:0.211667"
       d="m 55.923629,154.16576 c -0.444416,0 -0.856108,0.0775 -1.235067,0.23254 -0.378959,0.15503 -0.706245,0.37035 -0.981852,0.64596 -0.275607,0.27216 -0.492649,0.59944 -0.651123,0.98185 -0.155033,0.37896 -0.232544,0.79237 -0.232544,1.24023 v 1.41594 c 0,0.45131 0.07751,0.86644 0.232544,1.2454 0.158474,0.37896 0.375516,0.70624 0.651123,0.98185 0.275607,0.27561 0.602893,0.49093 0.981852,0.64596 0.378959,0.15158 0.790651,0.22737 1.235067,0.22737 h 1.81901 c 0.444416,0 0.854386,-0.0758 1.2299,-0.22737 0.378959,-0.15503 0.706245,-0.37035 0.981852,-0.64596 0.275607,-0.27561 0.490926,-0.60289 0.645955,-0.98185 0.155034,-0.37896 0.232544,-0.79409 0.232544,-1.2454 v -1.41594 c 0,-0.44786 -0.07751,-0.86127 -0.232544,-1.24023 -0.155029,-0.38241 -0.370348,-0.70969 -0.645955,-0.98185 -0.275607,-0.27561 -0.602893,-0.49093 -0.981852,-0.64596 -0.375514,-0.15505 -0.785484,-0.23254 -1.2299,-0.23254 z m -21.754744,0.12299 c -0.533989,0 -1.02664,0.0913 -1.477946,0.27388 -0.451306,0.18259 -0.842327,0.43753 -1.173055,0.76481 -0.330728,0.32728 -0.589112,0.71831 -0.775147,1.17306 -0.186032,0.45475 -0.279053,0.95257 -0.279053,1.49345 v 3.7052 h 1.343588 v -1.81901 h 4.723226 v 1.81901 h 1.343587 v -6.73344 c 0,-0.093 -0.01723,-0.18085 -0.05168,-0.26355 -0.03445,-0.0827 -0.08268,-0.15504 -0.144694,-0.21704 -0.06201,-0.062 -0.134361,-0.1102 -0.217041,-0.1447 -0.08268,-0.0345 -0.17053,-0.0517 -0.26355,-0.0517 z m 6.061645,0 c -0.230821,0 -0.437528,0.0293 -0.620117,0.0879 -0.182589,0.0586 -0.34451,0.13781 -0.485759,0.23771 -0.137803,0.0965 -0.256657,0.20842 -0.356567,0.33589 -0.09991,0.12747 -0.180869,0.26183 -0.242879,0.40308 -0.062,0.1378 -0.108517,0.27906 -0.139527,0.42375 -0.02756,0.14125 -0.04134,0.27389 -0.04134,0.39791 v 3.63802 c 0,0.23082 0.02928,0.43925 0.08785,0.62528 0.05857,0.18259 0.136084,0.34451 0.232544,0.48576 0.09991,0.13781 0.213597,0.25667 0.341065,0.35657 0.127468,0.0965 0.260105,0.17571 0.397908,0.23771 0.141249,0.062 0.282499,0.10853 0.423747,0.13953 0.144694,0.0275 0.279053,0.0413 0.403076,0.0413 h 4.878255 5.183146 c 0.144693,0 0.298002,-0.0172 0.459921,-0.0517 0.165365,-0.0344 0.327285,-0.0878 0.485758,-0.1602 0.158474,-0.0724 0.311781,-0.16536 0.45992,-0.27905 0.148139,-0.11369 0.277331,-0.25149 0.387574,-0.41341 0.110239,-0.16192 0.198089,-0.34796 0.263549,-0.55811 0.0689,-0.2136 0.103353,-0.45303 0.103353,-0.7183 0,-0.26527 -0.03272,-0.50298 -0.09818,-0.71313 -0.06546,-0.21015 -0.155029,-0.39619 -0.268717,-0.55811 -0.110243,-0.16192 -0.237713,-0.29972 -0.382406,-0.41341 -0.144694,-0.11713 -0.298001,-0.21359 -0.45992,-0.28939 -0.158474,-0.0758 -0.318672,-0.13086 -0.480591,-0.16536 -0.161919,-0.038 -0.315227,-0.059 -0.45992,-0.062 h -0.01034 -3.09025 c -0.254937,0 -0.454754,-0.0741 -0.599447,-0.22221 -0.141253,-0.15159 -0.211873,-0.35657 -0.211873,-0.61495 0,-0.25493 0.07062,-0.45992 0.211873,-0.61495 0.144693,-0.15504 0.34451,-0.23255 0.599447,-0.23255 h 4.573364 v -1.34358 h -4.573364 c -0.217041,0 -0.451309,0.0396 -0.7028,0.11885 -0.251491,0.0758 -0.485758,0.20154 -0.702799,0.37724 -0.213595,0.17225 -0.392742,0.39791 -0.537435,0.67696 -0.141253,0.27561 -0.211873,0.61496 -0.211873,1.01803 0,0.40307 0.07062,0.74414 0.211873,1.02319 0.144693,0.27905 0.32384,0.50471 0.537435,0.67696 0.217041,0.17225 0.451308,0.29804 0.702799,0.37724 0.251491,0.0758 0.485759,0.11369 0.7028,0.11369 h 3.09025 c 0.124023,0 0.235987,0.0207 0.335897,0.062 0.103353,0.0413 0.189482,0.0999 0.258382,0.1757 0.07234,0.0758 0.127475,0.16537 0.165365,0.26872 0.03789,0.10335 0.05684,0.21703 0.05684,0.34106 0,0.25493 -0.07235,0.45819 -0.217041,0.60978 -0.141248,0.15157 -0.341066,0.22738 -0.599447,0.22738 H 45.108785 40.23053 c -0.172254,0 -0.306616,-0.0465 -0.403076,-0.13953 -0.09302,-0.0965 -0.139526,-0.23082 -0.139526,-0.40307 v -3.62769 c 0,-0.18259 0.04651,-0.32041 0.139526,-0.41341 0.09302,-0.093 0.227377,-0.13953 0.403076,-0.13953 h 4.318083 v -1.34358 z m 23.065776,0 c -0.217041,0 -0.45131,0.0396 -0.7028,0.11885 -0.251492,0.0758 -0.485759,0.20154 -0.702799,0.37724 -0.213595,0.17225 -0.392741,0.39791 -0.537435,0.67696 -0.141252,0.27561 -0.211874,0.61496 -0.211874,1.01803 0,0.40307 0.07063,0.74414 0.211874,1.02319 0.144694,0.27905 0.32384,0.50471 0.537435,0.67696 0.21704,0.17225 0.451307,0.29804 0.702799,0.37724 0.25149,0.0758 0.485759,0.11369 0.7028,0.11369 h 3.09025 c 0.124022,0 0.235987,0.0207 0.335897,0.062 0.103352,0.0413 0.189482,0.0999 0.258382,0.1757 0.07234,0.0758 0.127475,0.16537 0.165365,0.26872 0.03789,0.10335 0.05684,0.21703 0.05684,0.34106 0,0.25493 -0.07235,0.45819 -0.217041,0.60978 -0.141248,0.15157 -0.341066,0.22738 -0.599447,0.22738 H 61.20341 v 1.34359 h 5.183146 c 0.144693,0 0.298001,-0.0172 0.459921,-0.0517 0.165364,-0.0344 0.327284,-0.0878 0.485758,-0.1602 0.158474,-0.0724 0.311781,-0.16536 0.45992,-0.27905 0.148138,-0.11369 0.27733,-0.25149 0.387573,-0.41341 0.110239,-0.16192 0.19809,-0.34796 0.26355,-0.55811 0.0689,-0.2136 0.103353,-0.45303 0.103353,-0.7183 0,-0.26527 -0.03272,-0.50298 -0.09819,-0.71313 -0.06546,-0.21015 -0.15503,-0.39619 -0.268718,-0.55811 -0.110243,-0.16192 -0.237712,-0.29972 -0.382405,-0.41341 -0.144694,-0.11713 -0.298001,-0.21359 -0.45992,-0.28939 -0.158474,-0.0758 -0.318673,-0.13086 -0.480591,-0.16536 -0.16192,-0.038 -0.315227,-0.059 -0.45992,-0.062 h -0.01034 -3.09025 c -0.254936,0 -0.454753,-0.0741 -0.599447,-0.22221 -0.141252,-0.15159 -0.211873,-0.35657 -0.211873,-0.61495 0,-0.25493 0.07062,-0.45992 0.211873,-0.61495 0.144694,-0.15504 0.344511,-0.23255 0.599447,-0.23255 h 4.573364 v -1.34358 z m -7.372677,1.22059 h 1.81901 c 0.258381,0 0.494373,0.0431 0.707968,0.12919 0.21704,0.0827 0.401353,0.20154 0.552937,0.35657 0.155029,0.15159 0.273888,0.3359 0.356568,0.55294 0.08613,0.21359 0.129191,0.45303 0.129191,0.7183 v 1.41594 c 0,0.26527 -0.04306,0.50643 -0.129191,0.72347 -0.08268,0.21359 -0.201539,0.3979 -0.356568,0.55293 -0.155029,0.15159 -0.341064,0.27047 -0.558105,0.35657 -0.213595,0.0827 -0.451309,0.12403 -0.713135,0.12403 h -1.808675 c -0.261826,0 -0.501261,-0.0413 -0.718302,-0.12403 -0.213595,-0.0861 -0.397909,-0.20498 -0.552938,-0.35657 -0.155029,-0.15503 -0.275605,-0.33934 -0.361735,-0.55293 -0.08268,-0.21704 -0.124024,-0.4582 -0.124024,-0.72347 v -1.41594 c 0,-0.26527 0.04134,-0.50471 0.124024,-0.7183 0.08613,-0.21704 0.206706,-0.40135 0.361735,-0.55294 0.155029,-0.15503 0.339343,-0.27387 0.552938,-0.35657 0.217041,-0.0861 0.456476,-0.12919 0.718302,-0.12919 z m -21.754744,0.12299 h 2.361613 v 2.90422 h -4.723226 v -0.5426 c 0,-0.37552 0.05168,-0.69419 0.155029,-0.95602 0.106797,-0.26527 0.241157,-0.48576 0.403076,-0.66146 0.161919,-0.1757 0.339342,-0.31351 0.532267,-0.41341 0.192925,-0.0999 0.375517,-0.17391 0.547771,-0.22221 0.175699,-0.0483 0.329007,-0.0776 0.45992,-0.0879 0.134359,-0.0137 0.22221,-0.0207 0.26355,-0.0207 z" />
    <path
       style="font-size:3.88056px;font-family:Audiowide;-inkscape-font-specification:Audiowide;text-align:center;letter-spacing:-0.116417px;text-anchor:middle;fill:#ffffff;stroke:#000000;stroke-width:0.123;stroke-dashoffset:183.859"
       d="m 59.479458,164.91721 h -2.495457 v -0.91141 c 0,-0.0467 0.0051,-0.096 0.01516,-0.14779 0.01137,-0.0531 0.02842,-0.10549 0.05116,-0.15727 0.02274,-0.0518 0.05179,-0.10106 0.08716,-0.14779 0.03663,-0.0467 0.08021,-0.0878 0.130741,-0.12317 0.05179,-0.0366 0.111164,-0.0657 0.178112,-0.0872 0.06695,-0.0215 0.142742,-0.0322 0.227377,-0.0322 h 1.110355 c 0.06695,0 0.116215,-0.0164 0.147795,-0.0493 0.03284,-0.0341 0.04926,-0.0834 0.04926,-0.1478 v -0.2179 c 0,-0.0669 -0.01642,-0.11748 -0.04926,-0.15159 -0.03284,-0.0341 -0.08084,-0.0512 -0.144005,-0.0512 H 57.20569 v -0.49265 h 1.582162 c 0.08337,0 0.158532,0.0107 0.225482,0.0322 0.06695,0.0215 0.125688,0.0505 0.176216,0.0872 0.05179,0.0353 0.09601,0.0764 0.132637,0.12316 0.03663,0.0467 0.06632,0.096 0.08906,0.1478 0.024,0.0505 0.04105,0.10232 0.05116,0.15537 0.01137,0.0518 0.01705,0.10043 0.01705,0.1459 v 0.22169 c 0,0.12759 -0.02337,0.23559 -0.07011,0.32401 -0.04547,0.0872 -0.102949,0.15853 -0.172428,0.21412 -0.06948,0.0543 -0.144636,0.0941 -0.225481,0.11937 -0.07958,0.024 -0.154111,0.036 -0.223587,0.036 h -1.114145 c -0.04042,0 -0.07263,0.006 -0.09663,0.0171 -0.024,0.0114 -0.04295,0.0266 -0.05685,0.0455 -0.01263,0.0189 -0.02211,0.0404 -0.02842,0.0644 -0.0063,0.024 -0.01139,0.048 -0.01516,0.072 v 0.41876 h 2.002808 z m 3.485608,-1.13689 c 0,0.11117 -0.01453,0.21665 -0.04358,0.31644 -0.02779,0.0985 -0.06758,0.19011 -0.119373,0.27474 -0.05179,0.0846 -0.113059,0.16043 -0.183796,0.22738 -0.07074,0.0669 -0.148426,0.12442 -0.233061,0.17243 -0.08337,0.0467 -0.172427,0.0827 -0.267167,0.108 -0.09474,0.0253 -0.191376,0.0379 -0.289905,0.0379 H 60.93952 c -0.09979,0 -0.197059,-0.0126 -0.2918,-0.0379 -0.09474,-0.0253 -0.184427,-0.0613 -0.269062,-0.108 -0.08337,-0.048 -0.160427,-0.10548 -0.231166,-0.17243 -0.07074,-0.067 -0.132005,-0.14275 -0.183796,-0.22738 -0.05053,-0.0846 -0.09032,-0.17621 -0.119373,-0.27474 -0.02779,-0.0998 -0.04169,-0.20527 -0.04169,-0.31644 v -0.44338 c 0,-0.16675 0.03095,-0.31959 0.09285,-0.45854 0.06316,-0.13895 0.147163,-0.25833 0.252009,-0.35812 0.104846,-0.10106 0.225482,-0.17938 0.361908,-0.23496 0.137689,-0.0569 0.281062,-0.0853 0.43012,-0.0853 h 0.888664 c 0.09853,0 0.195164,0.0126 0.289905,0.0379 0.09474,0.0253 0.183796,0.0619 0.267167,0.1099 0.08463,0.0467 0.162322,0.10358 0.233061,0.17053 0.07074,0.0669 0.132005,0.14275 0.183796,0.22738 0.05179,0.0846 0.09158,0.17685 0.119373,0.27664 0.02905,0.0985 0.04358,0.20338 0.04358,0.31454 z m -0.496438,-0.44338 c 0,-0.0973 -0.01769,-0.18569 -0.05306,-0.26527 -0.03537,-0.0796 -0.08274,-0.1478 -0.14211,-0.20464 -0.05811,-0.0569 -0.125688,-0.10045 -0.202744,-0.13074 -0.07706,-0.0303 -0.157901,-0.0449 -0.242535,-0.0436 h -0.888664 c -0.08211,-0.001 -0.162321,0.0132 -0.24064,0.0436 -0.07706,0.0291 -0.1459,0.072 -0.206534,0.12884 -0.05937,0.0556 -0.107375,0.12381 -0.144005,0.20464 -0.03537,0.0796 -0.05305,0.16864 -0.05305,0.26717 v 0.44338 c 0,0.0985 0.01768,0.18759 0.05305,0.26717 0.03537,0.0796 0.08274,0.14779 0.142111,0.20464 0.05937,0.0556 0.127586,0.0986 0.204638,0.12885 0.07832,0.0303 0.159795,0.0449 0.24443,0.0436 h 0.888664 c 0.09727,0 0.185059,-0.0158 0.263377,-0.0474 0.07958,-0.0329 0.147164,-0.0777 0.202745,-0.13453 0.05558,-0.0569 0.09853,-0.12445 0.128846,-0.20275 0.03032,-0.0796 0.04548,-0.16611 0.04548,-0.25959 z m -0.214113,-0.36001 c 0.01895,0.0278 0.03158,0.0581 0.0379,0.0909 0.0063,0.0316 0.0063,0.0632 0,0.0947 -0.0063,0.0303 -0.01897,0.0594 -0.0379,0.0872 -0.01769,0.0265 -0.04106,0.0493 -0.07011,0.0682 l -1.330153,0.88866 c -0.02147,0.0164 -0.04358,0.0278 -0.06632,0.0341 -0.02274,0.006 -0.04611,0.009 -0.07011,0.009 -0.04042,0 -0.07895,-0.009 -0.115583,-0.0284 -0.03663,-0.0189 -0.06632,-0.0461 -0.08906,-0.0815 -0.01895,-0.0278 -0.03158,-0.0575 -0.0379,-0.0891 -0.0063,-0.0329 -0.007,-0.0644 -0.0019,-0.0947 0.0063,-0.0316 0.01833,-0.0607 0.036,-0.0872 0.01769,-0.0278 0.04106,-0.0512 0.07011,-0.0701 l 1.333943,-0.88866 c 0.02779,-0.0189 0.05748,-0.0316 0.08906,-0.0379 0.03285,-0.006 0.06443,-0.006 0.09474,0 0.03158,0.006 0.06063,0.018 0.08716,0.036 0.02779,0.0177 0.05116,0.0404 0.07011,0.0682 z m 3.502659,1.94028 h -2.495458 v -0.91141 c 0,-0.0467 0.0051,-0.096 0.01516,-0.14779 0.01137,-0.0531 0.02842,-0.10549 0.05116,-0.15727 0.02274,-0.0518 0.05179,-0.10106 0.08716,-0.14779 0.03663,-0.0467 0.08021,-0.0878 0.130741,-0.12317 0.05179,-0.0366 0.111164,-0.0657 0.178112,-0.0872 0.06695,-0.0215 0.142741,-0.0322 0.227376,-0.0322 h 1.110356 c 0.06695,0 0.116214,-0.0164 0.147795,-0.0493 0.03284,-0.0341 0.04926,-0.0834 0.04926,-0.1478 v -0.2179 c 0,-0.0669 -0.01642,-0.11748 -0.04926,-0.15159 -0.03285,-0.0341 -0.08085,-0.0512 -0.144006,-0.0512 h -1.582161 v -0.49265 h 1.582161 c 0.08337,0 0.158533,0.0107 0.225482,0.0322 0.06695,0.0215 0.125689,0.0505 0.176217,0.0872 0.05179,0.0353 0.09601,0.0764 0.132636,0.12316 0.03663,0.0467 0.06632,0.096 0.08906,0.1478 0.024,0.0505 0.04105,0.10232 0.05116,0.15537 0.01137,0.0518 0.01705,0.10043 0.01705,0.1459 v 0.22169 c 0,0.12759 -0.02337,0.23559 -0.07011,0.32401 -0.04547,0.0872 -0.102949,0.15853 -0.172427,0.21412 -0.06948,0.0543 -0.144637,0.0941 -0.225482,0.11937 -0.07958,0.024 -0.15411,0.036 -0.223587,0.036 h -1.114145 c -0.04042,0 -0.07263,0.006 -0.09663,0.0171 -0.024,0.0114 -0.04295,0.0266 -0.05684,0.0455 -0.01263,0.0189 -0.02211,0.0404 -0.02842,0.0644 -0.0063,0.024 -0.01139,0.048 -0.01516,0.072 v 0.41876 h 2.002808 z m 0.830985,-1.6068 h 1.311205 c 0.06948,0 0.144005,0.0126 0.223587,0.0379 0.08085,0.024 0.156005,0.0638 0.225481,0.11937 0.06948,0.0543 0.126953,0.1257 0.172428,0.21411 0.04674,0.0884 0.07011,0.19643 0.07011,0.32401 v 0.2198 c 0,0.0467 -0.0057,0.096 -0.01705,0.1478 -0.01011,0.0518 -0.02716,0.10359 -0.05116,0.15537 -0.02274,0.0505 -0.05243,0.0992 -0.08906,0.1459 -0.03537,0.0467 -0.07895,0.0884 -0.130742,0.12506 -0.05053,0.0353 -0.109266,0.0638 -0.176217,0.0853 -0.06695,0.0215 -0.142741,0.0322 -0.227376,0.0322 h -0.892453 c -0.06063,0 -0.125688,-0.007 -0.195165,-0.0209 -0.06821,-0.0139 -0.135795,-0.036 -0.202744,-0.0663 -0.06695,-0.0316 -0.132005,-0.0708 -0.195165,-0.11747 -0.0619,-0.048 -0.116218,-0.10548 -0.162953,-0.17243 -0.04674,-0.0682 -0.08464,-0.14653 -0.113689,-0.23496 -0.02779,-0.0884 -0.04169,-0.18821 -0.04169,-0.29938 v -0.89245 c 0,-0.11116 0.0139,-0.21095 0.04169,-0.29938 0.02905,-0.0884 0.06695,-0.16611 0.113689,-0.23306 0.04674,-0.0682 0.101058,-0.12632 0.162953,-0.17432 0.06316,-0.048 0.128215,-0.0872 0.195165,-0.11748 0.06695,-0.0316 0.134531,-0.0543 0.202744,-0.0682 0.06948,-0.0139 0.134531,-0.0208 0.195165,-0.0208 h 1.235412 v 0.49265 h -1.235412 c -0.06316,0.005 -0.120636,0.0186 -0.172428,0.0398 -0.05053,0.0215 -0.09411,0.0499 -0.130741,0.0853 -0.03663,0.0354 -0.06506,0.0784 -0.08527,0.12885 -0.02021,0.0493 -0.03032,0.10485 -0.03032,0.16674 z m 0,0.49644 v 0.19895 c 0,0.0644 0.01074,0.12251 0.03221,0.17433 0.02274,0.0505 0.05306,0.0941 0.09095,0.13074 0.03789,0.0367 0.0821,0.0651 0.132636,0.0853 0.05179,0.0189 0.107374,0.0284 0.166743,0.0284 h 0.888664 c 0.06316,0 0.111162,-0.019 0.144005,-0.0569 0.03411,-0.0379 0.05116,-0.0852 0.05116,-0.14211 v -0.2198 c 0,-0.0644 -0.01642,-0.11366 -0.04927,-0.14779 -0.03284,-0.0341 -0.08274,-0.0512 -0.14969,-0.0512 z"
       id="text1"
       aria-label="Cesena 2026"
       sodipodi:nodetypes="ccscccccsscsscsccssccccsscccsssccccccscsscsssscsccsscccssscsscsssscccccccssscccscccsscccccccsscccccccccccccscccccsscsscsccssccccsscccssscccccccscccsscccccsscccccsscccccsccccscsccscccsscssccc" />
  </g>
</svg>
