<?xml version="1.0" encoding="UTF-8" standalone="no"?><svg xmlns="http://www.w3.org/2000/svg" xml:space="preserve" width="886" height="746"><path d="M540.184 743.924c-.644-1.032-2.974-2.797-5.178-3.92-2.203-1.125-4.006-2.675-4.006-3.447 0-2.028-9.123-9.543-11.595-9.55-1.152-.004-2.91-.907-3.905-2.007-.995-1.1-2.753-2.025-3.905-2.056-2.09-.057-17.313-17.02-18.775-20.924-.374-.999-1.17-2.118-1.768-2.488-.729-.45-.443-1.578.863-3.413 4.625-6.495 3.34-10.253-4.915-14.373-3.517-1.755-4.61-2.902-5-5.246-.36-2.158-1.406-3.42-3.729-4.5-2.365-1.099-3.398-2.37-3.862-4.756-.678-3.484-5.452-8.254-8.236-8.229-.92.008-2.343.44-3.163.958-1.029.65-2.516.336-4.807-1.016-1.825-1.076-4.53-1.959-6.01-1.96-1.481-.003-4.232-.943-6.113-2.09-2.328-1.419-4.323-1.896-6.25-1.496l-5.67 1.179c-2.188.455-4.156-.252-8.573-3.078-3.153-2.017-7.05-4.126-8.66-4.687-2.53-.882-2.927-1.526-2.927-4.749 0-4.348-2.843-7.531-7.5-8.396-6.488-1.205-11.208-2.381-12.327-3.073-.645-.399-1.173-2.858-1.173-5.466s-.54-5.281-1.2-5.941c-1.613-1.613-4.868-1.463-7.241.332-2.215 1.675-7.136 1.96-8.059.468-.34-.55-1.647-1-2.904-1s-3.1-.9-4.096-2c-2.847-3.145-8.655-2.68-12.882 1.03l-3.452 3.031-4.779-3.03c-2.628-1.667-5.365-3.031-6.083-3.031-.717 0-1.304-.496-1.304-1.103 0-1.581-8.766-11.158-11.607-12.679-1.316-.705-2.393-2.03-2.393-2.945 0-2.204-4.924-7.273-7.065-7.273-.93 0-2.204-.619-2.832-1.375-.627-.757-3.149-1.938-5.603-2.625-2.454-.687-4.976-1.868-5.603-2.625-.628-.756-1.606-1.375-2.173-1.375-3.15 0-11.83-5.423-15.133-9.455-2.049-2.5-4.321-4.545-5.05-4.545-2.43 0-2.655-4.89-.542-11.73 1.13-3.661 2.007-8.482 1.948-10.713-.059-2.231.194-5.226.56-6.654.564-2.195.065-3.074-3.23-5.683-2.142-1.697-5.144-3.4-6.67-3.783-1.527-.383-3.881-1.802-5.233-3.154l-2.459-2.459 2.227-7.055 2.227-7.055-3.21-2.607c-1.766-1.434-5.515-4.97-8.332-7.857-3.135-3.213-5.981-5.25-7.338-5.25-1.732 0-2.78-1.256-4.797-5.75-3.564-7.941-7.898-11.836-14.168-12.73-3.375-.482-6.042-1.646-8.285-3.615-3.714-3.261-7.66-3.739-10.401-1.258-1.705 1.542-1.95 1.48-3.901-1-1.145-1.456-2.738-2.647-3.54-2.647s-2.841-1.575-4.531-3.5c-1.69-1.925-3.857-3.5-4.815-3.5-1.844 0-4.37 2.429-5.314 5.111-.457 1.298-1.606 1.517-5.902 1.124-8.28-.757-9.506-2.46-5.335-7.417 1.375-1.634 2.5-4.01 2.5-5.278 0-3.036-6.372-8.753-12.264-11.003-2.514-.96-6.857-3.949-9.65-6.641-2.794-2.693-5.926-4.896-6.96-4.896-1.035 0-2.393-.617-3.02-1.372-.626-.754-3.268-1.618-5.872-1.92-4.137-.479-5.08-.22-7.484 2.06-1.512 1.433-2.75 3.422-2.75 4.42 0 1.505-.837 1.812-4.941 1.812-2.718 0-5.193.407-5.5.905-.308.497-2.294.672-4.415.387-2.255-.302-4.85.025-6.25.788-1.317.717-4.115 1.356-6.219 1.418-3.15.094-4.058-.336-5.148-2.442-.728-1.406-2.832-3.96-4.675-5.676-1.844-1.716-4.089-4.477-4.99-6.135-1.581-2.913-1.946-3.04-10.757-3.737-8.548-.676-9.25-.903-11.181-3.615-1.133-1.591-2.918-2.893-3.965-2.893-2.416 0-10.667-3.596-18.19-7.928-3.524-2.029-5.896-.663-7.267 4.186-.972 3.436-4.056 7.742-5.546 7.742-1.772 0-2-7.107-.339-10.606 1.502-3.165 1.567-4.518.534-11.16-1.248-8.03-2.349-10.234-5.11-10.234-.942 0-3.7-1.537-6.127-3.415-2.428-1.878-6.777-4.18-9.664-5.115-2.887-.935-5.25-2.072-5.25-2.527 0-.454-2.724-2.922-6.054-5.485-7.485-5.76-7.704-8.123-.707-7.62 5.441.39 11.35-1.255 14.368-4.001 1.82-1.655 3.455-1.886 12-1.691 5.441.124 10.685.703 11.653 1.286 1.47.887 2.754.036 7.816-5.185 4.032-4.16 6.838-6.247 8.397-6.247 1.55 0 3.894-1.726 6.934-5.108 3.766-4.189 4.593-5.797 4.593-8.933 0-3.293.59-4.304 4.25-7.269 4.03-3.265 4.56-3.417 10.25-2.933 3.3.281 6.888 1.126 7.973 1.877 3.5 2.424 7.048 1.683 9.908-2.067 1.44-1.889 2.619-4.227 2.619-5.197 0-2.748 4.601-8.723 11.011-14.298 3.983-3.465 6.654-6.844 8.37-10.592 1.386-3.028 3.33-5.808 4.32-6.18 2.695-1.01 17.282-14.597 21.823-20.328 4.303-5.429 6.426-11.743 6.457-19.198l.019-4.727 9.012.14c8.207.127 9.236-.072 11.535-2.231 2.031-1.909 2.48-3.202 2.303-6.63-.26-5.042.867-6.521 9.863-12.941 7.484-5.34 7.873-7.224 2.32-11.246-2.18-1.58-3.671-3.168-3.311-3.528.36-.36 4.556-.36 9.325 0 6.206.469 8.878.319 9.4-.526.472-.763 2.203-.978 4.892-.607 5.735.791 11.692-2.608 13.134-7.494 1.449-4.914 2.825-6.953 5.608-8.312 3.486-1.7 6.912-9.196 6.707-14.672-.094-2.496.892-7.723 2.214-11.736 2.138-6.494 2.724-7.349 5.715-8.336 2.633-.869 4.308-.767 7.986.486 7.568 2.58 8.24 2.302 17.42-7.164l8.484-8.75 7.828-18.5c5.543-13.1 8.894-19.668 11.48-22.5 9.97-10.924 12.082-14.795 12.097-22.184.007-3.199 1.132-9.863 2.5-14.809C315.881 56.561 317 51.123 317 49.424c0-3.95.65-4.54 3.546-3.22 1.38.628 2.472 2.104 2.65 3.581.544 4.5 2.763 4.902 14.041 2.54l10.263-2.148 3.247 1.992c2.382 1.46 4.116 1.81 6.5 1.313 5.457-1.138 7.501-3.03 8.285-7.673.904-5.349 3.3-8.737 6.209-8.778 1.232-.017 16.677-3.631 34.32-8.031 17.645-4.4 32.724-8 33.51-8 1.042 0 1.429 1.312 1.429 4.845 0 5.415.94 6.635 7.75 10.059 2.383 1.198 4.301 2.897 4.366 3.866.064.952.177 3.737.25 6.19l.134 4.459 8.5 4.77c4.675 2.623 9.443 4.78 10.595 4.79 2.778.028 5.405-3.006 5.405-6.24 0-3.027 2.391-4.158 6.665-3.153 3.718.874 12.49 5.823 14.753 8.323 3.598 3.976 21.184 3.53 25.888-.656 1.084-.964 11.125-13.078 22.313-26.92C568.854 5.066 568.605 5.294 578 3.46c1.925-.375 4.252-1.345 5.17-2.154 1.484-1.307 1.783-1.263 2.668.392.549 1.025 1.312 5.225 1.697 9.333.384 4.108 1.323 8.827 2.086 10.487 1.431 3.114 1.687 15.5 1.13 54.668l-.251 17.686 2.937 3.064c2.312 2.412 3.802 3.072 7 3.103l4.063.04-3.493 1.514c-5.551 2.407-8.007 5.27-8.006 9.331.002 6.146 2.761 19.22 5.924 28.076 1.67 4.675 3.044 9.445 3.055 10.601.011 1.156 1.123 4.175 2.47 6.71 3.03 5.698 4.604 11.254 5.579 19.689 2.576 22.292 6.256 38.776 11.36 50.875 1.86 4.412 3.183 8.22 2.94 8.462-.242.243.26 3.144 1.115 6.447.856 3.302 1.556 7.395 1.556 9.095 0 3.173 2.543 12.481 7.932 29.032 3.184 9.78 15.695 34.916 19.331 38.839 1.147 1.237 2.682 2.25 3.411 2.25.73 0 1.326.358 1.326.796 0 2.128 9.205 15.726 14.777 21.829 12.157 13.316 28.818 32.983 36.139 42.659 4.071 5.381 12.913 15.11 19.648 21.62 9.697 9.374 13.01 11.981 15.917 12.526 2.237.42 4.194.255 5.01-.423 1.051-.872 2.043-.075 4.593 3.69 15.26 22.532 47.9 57.65 63.267 68.07 13.234 8.972 24.66 13.129 28.144 10.237 1.028-.853 1.9-.93 2.755-.243 1.52 1.222 10.734 3.239 14.8 3.239 4.144 0 4.11 3.833-.056 6.203-3.18 1.81-4.02 5.37-1.794 7.597.66.66 3.698 1.202 6.75 1.205 6.346.006 9.592 2.05 12.903 8.125l1.978 3.63-3.916 3.823c-2.153 2.102-3.914 4.519-3.913 5.37.001.85 2.251 5.287 5 9.857 5.449 9.06 6.053 10.866 2.998 8.958-1.56-.975-2.42-.986-3.915-.053-1.532.957-2.155.905-3.122-.26-.78-.939-3.09-1.455-6.509-1.455-4.244 0-5.914.516-8.377 2.589-1.692 1.424-3.077 3.412-3.077 4.418 0 3.328-1.184 4.993-3.55 4.993-1.285 0-3.024.982-3.864 2.181-1.44 2.055-1.636 2.084-3.386.5-2.966-2.685-5.158-2.01-10.794 3.319-3.927 3.715-6.058 5-8.287 5-1.65 0-3.28.45-3.619 1-.34.55-1.422 1-2.404 1s-2.6.9-3.596 2c-.995 1.1-3.02 2-4.5 2-3.496 0-5.575 2.407-7.01 8.114-.818 3.258-.86 5.698-.14 8.302.94 3.404.83 3.772-1.412 4.794-1.971.898-2.795.777-4.362-.641-1.353-1.225-2.63-1.522-4.254-.993-1.277.416-4.413.795-6.969.842-2.922.054-5.364.734-6.579 1.834-2.49 2.254-3.508 2.203-5.042-.252-.687-1.1-1.853-2-2.591-2-.738 0-2.775-2.305-4.526-5.122-3.173-5.104-3.2-5.12-7.325-4.46-3.946.63-4.367.438-8.983-4.108-4.278-4.214-5.071-4.626-6.81-3.54-1.084.677-2.474 1.23-3.09 1.23-.616 0-3.233 2.25-5.815 5-4.65 4.953-7.092 6.222-7.092 3.687 0-.722-1.346-2.602-2.991-4.179-2.436-2.333-4.046-2.929-8.672-3.206-3.124-.188-6.165-.726-6.758-1.196-.594-.47-3.16-1.154-5.702-1.522-4.034-.583-5.008-.345-7.644 1.874-1.662 1.398-3.762 2.542-4.668 2.542-.905 0-2.878.91-4.383 2.024-1.82 1.346-5.357 2.317-10.56 2.9-4.303.483-8.319 1.373-8.923 1.977-.604.604-2.047 1.099-3.205 1.099s-3.63 1.125-5.494 2.5c-1.864 1.375-4.391 2.5-5.616 2.5-1.375 0-3.587 1.587-5.776 4.145-2.981 3.483-4.37 4.274-8.704 4.96-5.185.819-8.904 3.11-8.904 5.482 0 1.958-5.704 5.701-6.565 4.308-.448-.725-2.39-.944-5.32-.6-3.618.426-5.125.128-6.976-1.376-3.169-2.576-4.484-2.428-8.354.938-1.807 1.571-5.085 3.421-7.285 4.111-8.02 2.516-10.662 5.993-6.915 9.102 1.227 1.019 1.434 2.344.917 5.873-.366 2.506-1.08 4.985-1.584 5.507-.505.523-.918 1.76-.918 2.75s-.69 1.8-1.532 1.8c-.843 0-3.205.765-5.25 1.7-2.045.934-4.83 1.948-6.191 2.254-1.36.306-2.98 1.574-3.601 2.819-1.75 3.508-1.981 3.518-5.28.22-3-3-3.295-3.076-9.371-2.419-6.445.698-9.775 2.517-9.775 5.34 0 .883-.878 2.153-1.95 2.823-1.078.673-2.26 2.907-2.642 4.99-.38 2.075-1.303 4.66-2.05 5.746-.747 1.084-1.358 2.778-1.358 3.763 0 .985-.516 2.617-1.146 3.627-1.496 2.395-.472 6.25 2.646 9.954 1.375 1.635 2.5 4.075 2.5 5.422 0 4.155 2.873 5.761 10.305 5.761h6.648l4.024-5.09c2.213-2.8 4.023-5.794 4.023-6.655 0-1.387.208-1.377 1.829.09 1.006.91 2.975 1.655 4.377 1.655 4.036 0 5.318 2.31 3.903 7.032-.657 2.193-1.822 3.968-2.603 3.968-1.853 0-8.506 8.744-8.506 11.179 0 1.04.71 2.976 1.58 4.302 1.875 2.863 1.537 3.588-4.835 10.378-5.107 5.441-10.603 7.77-15.697 6.651-2.25-.493-3.248-.062-5.188 2.245-3.214 3.819-5.235 4.476-6.676 2.169z" style="fill:#f6aa23"/><path d="M540.184 743.924c-.644-1.032-2.974-2.797-5.178-3.92-2.203-1.125-4.006-2.675-4.006-3.447 0-2.028-9.123-9.543-11.595-9.55-1.152-.004-2.91-.907-3.905-2.007-.995-1.1-2.753-2.025-3.905-2.056-2.09-.057-17.313-17.02-18.775-20.924-.374-.999-1.17-2.118-1.768-2.488-.729-.45-.443-1.578.863-3.413 4.625-6.495 3.34-10.253-4.915-14.373-3.517-1.755-4.61-2.902-5-5.246-.36-2.158-1.406-3.42-3.729-4.5-2.365-1.099-3.398-2.37-3.862-4.756-.678-3.484-5.452-8.254-8.236-8.229-.92.008-2.343.44-3.163.958-1.029.65-2.516.336-4.807-1.016-1.825-1.076-4.53-1.959-6.01-1.96-1.481-.003-4.232-.943-6.113-2.09-2.328-1.419-4.323-1.896-6.25-1.496l-5.67 1.179c-2.188.455-4.156-.252-8.573-3.078-3.153-2.017-7.05-4.126-8.66-4.687-2.53-.882-2.927-1.526-2.927-4.749 0-4.348-2.843-7.531-7.5-8.396-6.488-1.205-11.208-2.381-12.327-3.073-.645-.399-1.173-2.858-1.173-5.466s-.54-5.281-1.2-5.941c-1.613-1.613-4.868-1.463-7.241.332-2.215 1.675-7.136 1.96-8.059.468-.34-.55-1.647-1-2.904-1s-3.1-.9-4.096-2c-2.847-3.145-8.655-2.68-12.882 1.03l-3.452 3.031-4.779-3.03c-2.628-1.667-5.365-3.031-6.083-3.031-.717 0-1.304-.496-1.304-1.103 0-1.581-8.766-11.158-11.607-12.679-1.316-.705-2.393-2.03-2.393-2.945 0-2.204-4.924-7.273-7.065-7.273-.93 0-2.204-.619-2.832-1.375-.627-.757-3.149-1.938-5.603-2.625-2.454-.687-4.976-1.868-5.603-2.625-.628-.756-1.606-1.375-2.173-1.375-3.15 0-11.83-5.423-15.133-9.455-2.049-2.5-4.321-4.545-5.05-4.545-2.43 0-2.655-4.89-.542-11.73 1.13-3.661 2.007-8.482 1.948-10.713-.059-2.231.194-5.226.56-6.654.564-2.195.065-3.074-3.23-5.683-2.142-1.697-5.144-3.4-6.67-3.783-1.527-.383-3.881-1.802-5.233-3.154l-2.459-2.459 2.227-7.055 2.227-7.055-3.21-2.607c-1.766-1.434-5.515-4.97-8.332-7.857-3.135-3.213-5.981-5.25-7.338-5.25-1.732 0-2.78-1.256-4.797-5.75-3.564-7.941-7.898-11.836-14.168-12.73-3.375-.482-6.042-1.646-8.285-3.615-3.714-3.261-7.66-3.739-10.401-1.258-1.705 1.542-1.95 1.48-3.901-1-1.145-1.456-2.738-2.647-3.54-2.647s-2.841-1.575-4.531-3.5c-1.69-1.925-3.857-3.5-4.815-3.5-1.844 0-4.37 2.429-5.314 5.111-.457 1.298-1.606 1.517-5.902 1.124-8.28-.757-9.506-2.46-5.335-7.417 1.375-1.634 2.5-4.01 2.5-5.278 0-3.036-6.372-8.753-12.264-11.003-2.514-.96-6.857-3.949-9.65-6.641-2.794-2.693-5.926-4.896-6.96-4.896-1.035 0-2.393-.617-3.02-1.372-.626-.754-3.268-1.618-5.872-1.92-4.137-.479-5.08-.22-7.484 2.06-1.512 1.433-2.75 3.422-2.75 4.42 0 1.505-.837 1.812-4.941 1.812-2.718 0-5.193.407-5.5.905-.308.497-2.294.672-4.415.387-2.255-.302-4.85.025-6.25.788-1.317.717-4.115 1.356-6.219 1.418-3.15.094-4.058-.336-5.148-2.442-.728-1.406-2.832-3.96-4.675-5.676-1.844-1.716-4.089-4.477-4.99-6.135-1.581-2.913-1.946-3.04-10.757-3.737-8.548-.676-9.25-.903-11.181-3.615-1.133-1.591-2.918-2.893-3.965-2.893-2.416 0-10.667-3.596-18.19-7.928-3.524-2.029-5.896-.663-7.267 4.186-.972 3.436-4.056 7.742-5.546 7.742-1.772 0-2-7.107-.339-10.606 1.502-3.165 1.567-4.518.534-11.16-1.248-8.03-2.349-10.234-5.11-10.234-.942 0-3.7-1.53-6.127-3.401-2.428-1.871-6.444-4.08-8.926-4.908-2.481-.828-6.226-3.122-8.321-5.098L5.857 371h691.769l2.486 2.75c1.367 1.512 5.798 7.153 9.846 12.534 4.048 5.381 12.871 15.11 19.606 21.62 9.697 9.374 13.01 11.981 15.917 12.526 2.237.42 4.194.255 5.01-.423 1.051-.872 2.043-.075 4.593 3.69 15.26 22.532 47.9 57.65 63.267 68.07 13.234 8.972 24.66 13.129 28.144 10.238 1.028-.854 1.9-.931 2.755-.244 1.52 1.222 10.734 3.239 14.8 3.239 4.144 0 4.11 3.833-.056 6.203-3.18 1.81-4.02 5.37-1.794 7.597.66.66 3.698 1.202 6.75 1.205 6.346.006 9.592 2.05 12.903 8.125l1.978 3.63-3.916 3.823c-2.153 2.102-3.914 4.52-3.913 5.37 0 .85 2.251 5.287 5 9.857 5.448 9.06 6.053 10.866 2.998 8.958-1.56-.975-2.42-.986-3.915-.053-1.532.957-2.155.905-3.122-.26-.78-.939-3.09-1.455-6.509-1.455-4.244 0-5.914.516-8.377 2.589-1.692 1.424-3.077 3.412-3.077 4.418 0 3.328-1.184 4.993-3.55 4.993-1.285 0-3.024.982-3.864 2.181-1.44 2.055-1.636 2.084-3.386.5-2.966-2.685-5.158-2.01-10.794 3.319-3.927 3.715-6.058 5-8.287 5-1.65 0-3.28.45-3.619 1-.34.55-1.422 1-2.404 1s-2.6.9-3.596 2c-.995 1.1-3.02 2-4.5 2-3.496 0-5.575 2.407-7.01 8.114-.818 3.258-.86 5.698-.14 8.302.94 3.404.83 3.772-1.412 4.794-1.971.898-2.795.777-4.362-.641-1.353-1.225-2.63-1.522-4.254-.993-1.277.416-4.413.795-6.969.842-2.922.054-5.364.734-6.579 1.834-2.49 2.254-3.508 2.203-5.042-.252-.687-1.1-1.853-2-2.591-2-.738 0-2.775-2.305-4.526-5.122-3.173-5.104-3.2-5.12-7.325-4.46-3.946.63-4.367.438-8.983-4.108-4.278-4.214-5.071-4.626-6.81-3.54-1.084.677-2.474 1.23-3.09 1.23-.616 0-3.233 2.25-5.815 5-4.65 4.953-7.092 6.222-7.092 3.687 0-.722-1.346-2.602-2.991-4.179-2.436-2.333-4.046-2.929-8.672-3.206-3.124-.188-6.165-.726-6.758-1.196-.594-.47-3.16-1.154-5.702-1.522-4.034-.583-5.008-.345-7.644 1.874-1.662 1.398-3.762 2.542-4.668 2.542-.905 0-2.878.91-4.383 2.024-1.82 1.346-5.357 2.317-10.56 2.9-4.303.483-8.319 1.373-8.923 1.977-.604.604-2.047 1.099-3.205 1.099s-3.63 1.125-5.494 2.5c-1.864 1.375-4.391 2.5-5.616 2.5-1.375 0-3.587 1.587-5.776 4.145-2.981 3.483-4.37 4.274-8.704 4.96-5.185.819-8.904 3.11-8.904 5.482 0 1.958-5.704 5.701-6.565 4.308-.448-.725-2.39-.944-5.32-.6-3.618.426-5.125.128-6.976-1.376-3.169-2.576-4.484-2.428-8.354.938-1.807 1.571-5.085 3.421-7.285 4.111-8.02 2.516-10.662 5.993-6.915 9.102 1.227 1.019 1.434 2.344.917 5.873-.366 2.506-1.08 4.985-1.584 5.507-.505.523-.918 1.76-.918 2.75s-.69 1.8-1.532 1.8c-.843 0-3.205.765-5.25 1.7-2.045.934-4.83 1.948-6.191 2.254-1.36.306-2.98 1.574-3.601 2.819-1.75 3.508-1.981 3.518-5.28.22-3-3-3.295-3.076-9.371-2.419-6.445.698-9.775 2.517-9.775 5.34 0 .883-.878 2.153-1.95 2.823-1.078.673-2.26 2.907-2.642 4.99-.38 2.075-1.303 4.66-2.05 5.746-.747 1.084-1.358 2.778-1.358 3.763 0 .985-.516 2.617-1.146 3.627-1.496 2.395-.472 6.25 2.646 9.954 1.375 1.635 2.5 4.075 2.5 5.422 0 4.155 2.873 5.761 10.305 5.761h6.648l4.024-5.09c2.213-2.8 4.023-5.794 4.023-6.655 0-1.387.208-1.377 1.829.09 1.006.91 2.975 1.655 4.377 1.655 4.036 0 5.318 2.31 3.903 7.032-.657 2.193-1.822 3.968-2.603 3.968-1.853 0-8.506 8.744-8.506 11.179 0 1.04.71 2.976 1.58 4.302 1.875 2.863 1.537 3.588-4.835 10.378-5.107 5.441-10.603 7.77-15.697 6.651-2.25-.493-3.248-.062-5.188 2.245-3.214 3.819-5.235 4.476-6.676 2.169z" style="fill:#bd0a1f"/><path d="M292.414 177.886c-3.94 5.374-7.01 7.165-13.1 7.676l-3.838.308-1.536 3.019c-2.865 5.68-8.955 10.44-16.068 12.588l-2.815.82 4.094 2.865c6.141 4.35 8.444 7.164 10.133 12.435.972 3.07 1.842 10.337 1.842 15.608 0 4.964 1.126 11.719 2.559 15.557 1.33 3.531 4.196 6.55 7.471 7.778 1.689.666 2.252 1.126 2.2 1.945 0 .563-.153.768-.307.41-.358-.922-1.074-.768-4.503.87-8.648 4.093-15.557 12.23-18.934 22.209-7.113 21.288 4.503 43.14 27.07 50.815 3.02 1.075 4.555 1.228 10.389 1.228 7.267 0 9.365-.511 15.813-3.787 1.484-.716 2.865-1.33 3.172-1.33.512 0 1.843 3.224 4.504 10.9 1.688 4.81 4.094 15.557 3.633 16.017-.102.154-1.689.359-3.53.563l-3.327.307-.563 3.89c-.307 2.098-.46 3.94-.41 3.991.103.102 1.177-.205 2.406-.614 4.094-1.484 5.117-.358 5.731 6.038l.205 2.406-2.098.511c-4.913 1.28-5.936 2.15-5.936 5.015 0 1.69 2.712 5.732 3.838 5.732.46 0 .767-.46.767-1.28 0-1.484 1.535-2.558 4.196-2.968l1.894-.307 1.074 2.866c1.433 3.787 3.07 10.081 3.07 11.668 0 .818-.306 1.279-.818 1.279-1.023 0-4.298 3.377-4.298 4.4 0 .973 1.944.513 5.117-1.125a9.99 9.99 0 0 1 4.759-1.228h2.508l-1.075 1.74c-1.996 3.224-1.024 9.518 2.814 18.269 4.299 9.774 5.834 18.832 6.858 40.12 1.33 28.913 1.842 33.416 4.042 35.617 1.536 1.484 5.885 3.02 8.444 2.968 4.145-.102 7.471-2.917 7.471-6.294 0-.922-.92-4.504-2.046-7.983-1.894-5.885-6.55-23.95-9.16-35.822-.615-2.661-1.331-5.783-1.587-6.909-.256-1.125-.921-3.991-1.484-6.396-1.586-7.011-2.098-11.514-2.047-19.702.051-8.086-.358-10.695-2.917-18.73-.716-2.2-1.433-4.042-1.586-4.042-.205 0-1.024.614-1.842 1.381l-1.433 1.433.563-1.535c.972-2.61 2.61-4.862 3.48-4.862.46 0 3.223 1.177 6.038 2.56l5.168 2.558.359 2.968c.511 4.606 2.865 11.36 3.94 11.36.205 0 1.28-1.74 2.303-3.889 1.074-2.098 2.047-3.94 2.251-4.042.154-.103 2.252 1.023 4.606 2.558 11.054 7.011 20.367 12.026 22.312 12.026 1.126 0-9.98-19.241-12.845-22.26-1.28-1.382-2.405-1.843-6.345-2.764-10.44-2.456-14.534-4.708-21.8-12.026-5.118-5.168-8.24-9.518-9.263-12.947-.358-1.228-.92-4.605-1.228-7.471-.563-5.322-1.228-8.904-1.74-9.416-.153-.153-2.251.41-4.605 1.28-4.964 1.74-4.504 2.098-5.374-3.736-.511-3.531-1.586-15.506-1.586-17.962v-1.33l7.062.357c6.397.359 7.369.256 10.849-.767 7.88-2.354 13.765-6.397 18.627-12.947 5.527-7.37 7.471-13.203 7.471-22.158 0-9.672-2.61-16.939-8.648-24.103-6.039-7.164-16.836-13.356-26.917-15.403-1.894-.359-2.047-.512-2.2-2.303-.154-1.74.101-2.2 2.404-4.35l2.61-2.456v-3.582c0-3.583-.307-4.657-3.94-13.766-1.33-3.429-1.382-3.992-1.433-12.282 0-9.825.051-10.132 4.35-18.678 1.381-2.815 2.558-5.322 2.558-5.527 0-.256-.92-.307-2.149-.051-1.228.205-4.247.41-6.806.46-4.043 0-5.015-.204-7.676-1.484-1.74-.767-4.452-2.507-6.09-3.838l-2.968-2.456-3.582.87c-5.117 1.28-8.802.819-14.073-1.791-2.251-1.126-4.247-2.047-4.4-2.047-.154 0-1.127 1.126-2.099 2.507zm24.512 9.519c4.197 1.023 12.743 4.4 15.045 5.834.87.562.973-.052-2.456 9.774-1.689 4.81-2.098 6.601-2.15 9.979-.05 5.629-.357 6.294-3.53 8.853-1.535 1.177-4.248 3.326-5.987 4.708-2.815 2.251-3.327 2.507-4.504 2.047-.767-.308-3.275-.512-5.68-.512-2.354 0-4.299-.205-4.299-.41 0-.255.717-1.074 1.536-1.893 1.79-1.689 1.893-3.02.818-9.979-.358-2.405-.614-4.4-.614-4.452.051-.102 2.508-.46 5.373-.87 2.917-.41 5.578-1.023 5.937-1.433.563-.563 3.326-7.574 3.326-8.392 0-.41-4.401-.154-9.928.563-3.121.409-5.68.665-5.731.614-.051-.051-.512-2.968-.973-6.5-.511-3.53-1.074-6.55-1.228-6.805-.204-.205-2.251-.103-4.554.255-4.862.666-4.555 0-3.429 7.83.41 2.815.768 5.373.768 5.68 0 .768-.972 1.024-8.7 1.996-3.48.46-6.448.921-6.55 1.024-.256.255 2.712 5.731 3.89 7.317.87 1.126 1.074 1.126 4.451.614 1.996-.255 4.657-.511 5.937-.511h2.405l.358 4.196c.205 2.303.614 5.22.972 6.448.46 1.996.819 2.405 2.354 2.917 1.33.46 1.842.92 1.945 1.893.102 1.024-.154 1.433-1.433 1.945-.87.358-2.456 1.688-3.582 2.917l-1.996 2.302-5.015-.818c-2.763-.46-6.09-.921-7.42-1.075l-2.405-.307-.307-2.405c-.768-5.885-1.382-9.058-2.354-11.668-1.075-2.917-4.862-8.802-7.574-11.974-.87-.973-1.586-1.945-1.586-2.15 0-.818 9.16-9.62 12.025-11.514 6.039-4.043 12.026-6.448 18.218-7.318 4.964-.665 13.1-.153 18.627 1.28zm7.165 42.73c-.256 1.74-.154 2.558.204 2.558.614 0 3.327-1.688 5.834-3.582l1.382-1.126v2.661c0 4.555-1.894 6.704-6.55 7.472-1.996.307-2.098.256-2.457-1.126-.153-.819-.665-2.763-1.023-4.299l-.717-2.814 1.382-1.126c.819-.665 1.638-1.177 1.842-1.177.256 0 .307 1.126.103 2.559zm-13.817.716c2.917 1.33 6.55 4.81 7.471 7.113.563 1.33.512 1.791-.512 3.634-.614 1.125-1.535 2.66-2.047 3.275l-.87 1.228-3.48-2.61c-1.893-1.433-3.633-2.61-3.888-2.61-.308 0-1.331 1.587-2.303 3.582-.973 1.945-1.894 3.583-1.996 3.583-.41 0-5.271-2.252-6.294-2.917-1.075-.717-1.075-.82-.307-3.378 2.149-7.318 6.14-12.128 10.132-12.128.87 0 2.712.563 4.094 1.228zm-20.623 8.393c.205.204.614 2.047.972 4.094.768 4.554.563 4.759-3.89 4.605-3.07-.153-3.07-.153-4.707-2.66-1.996-2.918-2.098-3.634-.512-3.174 1.842.563 6.5.973 6.5.614 0-.204-.359-1.177-.768-2.2-.41-.972-.768-1.945-.768-2.047 0-.358 2.712.358 3.173.768zm39.148 6.448c1.433 1.688 1.586 3.121.307 2.61-3.224-1.331-5.476-1.843-6.5-1.587-2.353.614-3.223 5.578-1.279 7.523 1.024 1.023 1.484 1.074 4.862.767 2.098-.153 3.787-.153 3.787.051 0 .205-.614 1.228-1.33 2.303-.973 1.33-1.638 1.894-2.252 1.689-.717-.205-3.839.665-7.267 2.047-.819.307-.921.051-.921-2.457 0-1.535-.358-3.786-.768-4.963-1.126-3.122-.972-4.81.563-6.653 1.842-2.2 4.043-3.07 7.062-2.866 1.996.154 2.815.46 3.736 1.536zm-29.118 5.117 1.893 1.791-3.838-.307c-4.605-.358-5.066 0-5.475 4.145-.359 3.326-.768 3.02 5.987 3.838 7.113.819 8.495 1.28 9.16 3.224 1.024 2.917.768 3.07-2.303 1.433-3.326-1.791-4.35-1.894-5.424-.665-2.917 3.326-1.126 5.526 5.731 7.215l1.791.46-2.149 1.075c-5.22 2.712-8.955.717-9.57-5.117-.358-3.07-.511-3.275-3.428-6.039-2.763-2.61-3.02-3.019-3.02-5.066 0-4.452 2.866-7.727 6.807-7.727 1.484 0 2.354.41 3.838 1.74zm44.214 1.484c9.058 3.07 15.915 7.625 19.19 12.793.716 1.126 1.126 2.098.972 2.303-.153.154-2.558-1.944-5.322-4.605-2.814-2.713-6.09-5.425-7.318-6.09-6.96-3.685-13.765-5.22-21.748-4.964-5.169.154-6.141-.256-2.61-1.075 4.247-1.023 10.849-.358 16.836 1.638zm-.358 3.736c5.731 1.842 10.593 4.912 15.096 9.416 5.885 5.833 8.29 10.848 9.16 19.139 1.075 9.774-1.893 19.087-8.085 25.535-2.713 2.866-3.838 3.531-9.775 5.988l-4.35 1.79-.153 2.406c-.205 3.121-.921 3.173-1.33.153l-.359-2.303h-2.712c-1.484 0-4.81-.153-7.318-.307-5.322-.409-5.22-.153-2.66-5.68 1.893-4.145 3.019-5.27 5.475-5.27 2.559 0 3.377-.615 2.917-2.099-.307-1.023-.256-1.126.307-.614.972.921 1.996.819 4.452-.512 9.979-5.322 14.175-19.19 9.058-29.987-2.61-5.425-7.728-10.44-13.664-13.306-4.759-2.302-4.708-2.2-3.735-5.475.204-.665 3.582-.205 7.676 1.126zm-15.148 4.298c.973.256 3.582.717 5.885 1.024 2.303.358 5.066 1.023 6.192 1.484 1.894.87 6.141 4.605 5.68 5.015-.102.102-1.842-.87-3.94-2.15-4.708-2.865-6.806-3.48-11.82-3.428-3.941.102-3.992.051-3.992-1.177 0-.717.05-1.28.153-1.28.051 0 .87.205 1.842.512zm-10.132 4.094c5.936 4.043 10.746 10.695 11.463 15.915.307 2.098.256 2.047-1.433-1.637-2.661-5.937-4.452-8.035-11.975-13.92-1.995-1.586-3.838-3.172-3.991-3.48-.512-.767 2.456.82 5.936 3.122zm6.857-2.047c.154.256-.153.512-.716.512-.614 0-1.075-.256-1.075-.512 0-.307.307-.512.717-.512.409 0 .92.205 1.074.512zm-39.148 2.866c1.126 1.023 1.945 2.047 1.791 2.252-.153.255-1.279.92-2.507 1.535-4.708 2.251-9.518 8.341-11.412 14.328-1.33 4.197-1.177 12.18.256 15.864 2.405 6.039 8.392 12.282 14.994 15.66l2.405 1.176.256-2.354c.358-3.275-.256-4.503-2.763-5.782-2.815-1.484-6.244-4.708-7.881-7.472-1.996-3.377-2.815-6.652-2.815-11.053 0-5.066 1.33-8.7 4.452-12.18 2.252-2.507 6.346-5.373 7.216-5.014.256.05 1.944 1.79 3.787 3.735l3.377 3.634.563 5.577c.717 7.42 1.894 11.668 5.169 18.32 1.586 3.276 2.507 5.68 2.251 5.937-.41.41-9.365 1.586-11.77 1.586-.614 0-.716.512-.614 2.405l.154 2.457 3.224.153c3.94.205 7.573-.819 12.998-3.53 2.15-1.075 4.094-1.997 4.247-1.997.154 0-.102.563-.563 1.28-.818 1.28-.818 1.381.307 2.558 1.075 1.126 1.996 4.146 2.047 6.755 0 1.894-7.778 5.118-16.017 6.602-1.075.153-3.275.102-4.862-.205-1.586-.307-4.861-.972-7.215-1.382-4.913-.972-7.778-2.302-11.924-5.578-7.778-6.192-13.202-17.347-13.202-27.173 0-4.605 1.74-10.849 4.145-14.891 2.507-4.299 8.29-9.877 13.049-12.691 2.2-1.28 4.196-2.354 4.401-2.354.205 0 1.33.818 2.456 1.842zm53.477.972c1.433.614 3.275 1.689 4.145 2.457 5.578 4.708 7.778 13.51 5.27 20.98-1.33 3.992-3.018 6.193-5.73 7.574-2.815 1.433-4.453 2.969-4.504 4.248 0 1.075 0 1.075-.563-.051-.307-.614-.972-1.177-1.484-1.33-.819-.206-.972-.768-.972-3.685 0-6.192-1.638-14.278-4.145-20.01l-.973-2.353 1.536-3.224c.87-1.791 1.688-3.94 1.842-4.81.307-1.382.512-1.536 1.689-1.28.716.205 2.507.819 3.889 1.484zm-10.747.205c-1.074 2.2-1.79 2.456-2.917 1.075-1.074-1.331-.767-1.843 1.126-2.2 2.61-.461 2.61-.461 1.791 1.125zm-17.655 5.373c.973.819 2.099 1.945 2.508 2.508.716 1.023.716 1.023-.87.05-.921-.51-2.712-2.046-4.043-3.428-1.944-2.047-2.15-2.354-.92-1.586.87.512 2.353 1.586 3.325 2.456zm14.329 8.495c.87 1.689 1.893 4.503 2.303 6.243.767 3.326 1.023 14.022.358 15.045-.563.921-2.61-.102-3.173-1.535-.256-.665-.307-4.094-.153-7.574.204-4.708.051-7.266-.563-10.132-1.33-6.192-1.075-6.602 1.228-2.047zm-19.446.87c0 4.861 1.433 10.9 3.838 16.017 3.275 6.96 3.07 9.57-.46 5.988-4.094-4.043-8.29-22.261-5.527-23.847 1.74-1.024 2.149-.666 2.149 1.842zm-13.561 48c0 1.178-2.456 1.74-3.582.768-1.28-1.023-.307-2.098 1.74-1.944 1.433.102 1.842.358 1.842 1.177zm13.868.973c-2.559 2.15-6.857 2.968-7.983 1.587-1.535-1.843.154-2.56 6.653-2.713l2.814-.05zm28.453 23.694c1.074 1.228 2.763 4.656 3.172 6.55.205.819.512 1.996.666 2.558l.307 1.024-1.177-1.024c-1.433-1.279-2.712-3.786-3.736-7.317-.819-2.764-.563-3.327.768-1.791zm8.085 15.25c.972 1.176.256 4.554-1.689 7.47-1.484 2.303-2.456 3.122-2.405 2.099 0-.205.665-1.689 1.484-3.275l1.433-2.866-1.433-1.126c-1.689-1.177-1.944-2.763-.614-3.53.972-.513 2.15-.103 3.224 1.227zM423.93 205.418c-1.228 4.196-2.814 7.88-4.4 10.132-3.378 4.913-3.122 9.774.818 15.045 3.224 4.299 4.299 4.862 7.83 4.35 1.586-.205 5.527-.41 8.75-.46 4.862 0 6.5.204 9.365 1.177 6.909 2.405 10.235 4.759 19.293 13.919 4.81 4.81 9.314 8.904 10.49 9.467 1.382.665 3.02 1.023 4.964.972 5.271-.102 10.85-4.452 12.18-9.467.614-2.2.818-9.007.358-9.518-.205-.154-1.74.307-3.531 1.023-4.299 1.689-7.113 2.098-9.365 1.382-2.303-.768-2.251-1.586.154-3.326 2.917-2.2 6.243-5.476 7.062-7.011.87-1.638.92-4.043.153-6.806-.563-1.996-.563-1.996-1.433-.921-.46.614-1.381 2.098-2.098 3.275-1.484 2.456-3.735 3.684-8.443 4.503-2.56.41-7.625.768-9.058.614-.205-.051.767-1.791 2.15-3.94 1.432-2.15 2.865-5.015 3.274-6.397.921-3.02 1.638-9.672 1.024-9.672-.205 0-1.996 1.126-3.992 2.508-1.996 1.381-4.554 2.865-5.68 3.326-2.354 1.023-7.727 1.638-9.672 1.126l-1.33-.307 1.125-2.712c2.354-5.885 3.48-9.775 3.48-12.18 0-1.381-.205-2.507-.41-2.507-.716 0-2.353 2.047-5.628 6.96-3.634 5.475-7.728 9.415-9.775 9.415-2.098 0-2.916-1.893-2.763-6.601l.154-3.89-2.968 3.173c-2.61 2.815-5.783 5.271-6.858 5.271-.256 0-.41-.972-.41-2.2-.05-4.503-2.302-12.128-3.684-12.128-.204 0-.716 1.074-1.125 2.405z"/><path d="M430.788 237.401c-3.838 1.945-5.476 5.68-4.145 9.212.256.716 1.74 2.814 3.326 4.759 2.303 2.968 2.661 3.633 2.047 3.991-.46.256-4.862 1.894-9.825 3.634-11.31 3.991-13.05 4.912-14.687 7.471l-1.28 2.047 1.587 2.815c1.484 2.61 1.586 3.07 1.28 6.038-.41 3.531-.154 4.043 3.018 5.63 2.866 1.432 5.067 1.586 7.267.46 2.456-1.28 5.424-4.299 7.164-7.267 1.382-2.507 4.248-10.746 4.248-12.333 0-1.433.972-1.637 3.53-.716 1.229.41 2.969.767 3.89.767 3.173 0 4.81-3.582 3.07-6.652-.409-.717-.716-1.433-.767-1.638 0-.204 1.33-.511 2.968-.716 4.708-.563 7.267-2.354 7.267-5.118 0-1.893-.615-2.507-3.94-3.786-2.304-.87-2.355-.973-1.127-1.28 1.945-.511 4.862.921 5.834 2.815 1.587 3.07.154 5.987-4.247 8.495-1.28.716-1.945 1.688-2.764 3.94-1.637 4.452-2.61 5.476-5.22 5.476-1.228 0-3.326-.359-4.656-.768-1.382-.41-2.559-.665-2.61-.614-.051.051-.563 1.944-1.177 4.145-1.689 6.09-3.94 10.235-7.318 13.356-4.605 4.299-7.983 4.606-13.97 1.382l-2.866-1.586-2.917 2.61c-14.175 12.588-23.744 28.657-27.327 45.851-1.637 7.83-1.586 22.568.052 31.83 1.637 9.211 4.452 20.214 6.806 26.866 1.228 3.327 4.759 10.389 6.703 13.305 6.5 9.621 17.706 21.135 31.984 32.65 10.286 8.392 12.64 10.285 12.896 10.592.153.154 3.019 2.508 6.396 5.22 7.267 5.783 12.077 10.695 13.357 13.51.716 1.637.92 3.48.92 10.44 0 7.982-.05 8.596-1.278 11.257-1.792 3.787-3.583 5.834-6.397 7.216-2.303 1.075-2.661 1.126-11.156.716-13.868-.665-12.742-.767-13.254 1.126-.512 1.638-.614 1.689-3.173 1.689-2.098 0-2.866.256-3.735 1.177-.615.665-1.126 1.33-1.126 1.484 0 .153 1.433.256 3.224.256 2.968-.103 3.377.051 5.475 1.689 2.047 1.637 2.559 1.79 5.63 1.79 2.865 0 3.94-.306 7.829-2.149 2.456-1.177 4.452-1.893 4.452-1.637 0 .307-.46 1.177-1.023 1.996-1.536 2.149-5.374 3.53-10.85 3.889-5.577.41-8.34 1.586-7.88 3.48.972 3.838 4.606 8.853 6.038 8.392.359-.154 1.331-1.586 2.099-3.275 1.279-2.661 1.995-3.429 5.782-6.039 2.354-1.637 5.578-4.145 7.165-5.475 1.535-1.382 3.019-2.508 3.275-2.508.256 0 .614.563.818 1.28.615 2.456-2.098 4.963-9.313 8.597-1.996 1.023-4.35 2.456-5.271 3.224l-1.638 1.381 1.382 1.433 1.33 1.382-1.995 1.023c-1.996 1.024-3.224 2.815-3.224 4.708 0 1.433.41 1.331 4.043-1.023 1.842-1.177 3.786-2.047 4.656-2.047 1.177 0 2.303-.87 5.527-4.094 4.145-4.145 5.885-6.908 6.5-10.388.204-1.075.562-2.047.818-2.2.665-.359 3.173 1.074 7.778 4.503 6.346 4.708 9.212 5.629 12.691 4.247.615-.205.922.051 1.177.921.205.973.922 1.484 2.713 2.098 1.279.46 2.558.82 2.763.82.768 0-.665-3.071-2.15-4.658-1.176-1.279-1.483-2.047-1.483-3.889 0-1.996-.256-2.61-1.894-4.247-1.228-1.177-3.326-2.405-5.578-3.275-5.066-1.894-5.526-2.56-5.117-6.602.154-1.79.819-4.861 1.484-6.806l1.126-3.53 4.503-2.61c2.508-1.434 4.76-2.866 5.117-3.225.768-.767 0-1.33-3.633-2.354-3.02-.92-2.968-.614-1.074-6.652.511-1.689 1.074-4.043 1.279-5.271l.358-2.2-3.787-3.685c-2.098-2.047-4.35-4.452-4.964-5.373-1.074-1.484-1.125-1.638-.255-1.638.511 0 2.558.46 4.503 1.024 5.066 1.432 5.066 1.432 4.657-1.28-.359-2.2-.307-2.303.92-2.303.666 0 1.894.256 2.662.512.767.307 1.586.358 1.842.102.768-.767-.205-5.27-1.433-6.754-.767-.87-5.578-3.583-12.64-7.062-6.294-3.122-14.175-7.42-17.501-9.57-10.644-6.806-21.186-16.222-28.043-25.075-2.61-3.377-8.035-12.23-8.035-13.152 0-.255-.46-1.381-.972-2.61-2.968-6.499-4.247-12.435-4.35-20.06-.05-7.983.41-9.723 3.89-13.356 7.369-7.778 20.418-8.136 37.459-.972l5.629 2.303 2.303-2.2c12.947-12.231 16.631-16.428 19.855-22.824 4.247-8.342 5.834-16.785 5.834-30.244-.051-16.273-1.126-19.548-11.463-34.952-1.894-2.865-4.094-7.01-5.169-9.774-1.023-2.61-2.354-5.22-3.019-5.782-.614-.563-2.968-2.098-5.22-3.378-8.802-4.964-17.706-6.704-22.26-4.35zm8.75 5.937c2.917 2.405-2.763 5.68-7.573 4.4-1.638-.46-1.638-3.377-.051-4.503 1.637-1.177 6.14-1.074 7.625.103z"/><path d="M417.227 244.566c-1.842.665-4.35 2.354-4.35 2.917 0 .255 1.893.716 4.247 1.023 2.303.358 4.708.717 5.374.87 1.126.205 1.177.102 1.023-2.456l-.153-2.712-2.303-.103c-1.28-.051-2.968.154-3.838.46zM417.994 251.372c0 .102.359 1.023.82 1.996.716 1.432 1.227 1.79 2.865 2.047 1.075.204 2.354.102 2.814-.103.666-.41.512-.665-.92-1.79-2.252-1.69-5.579-2.969-5.579-2.15zM571.771 328.951c-6.55 4.555-14.226 5.783-26.354 4.043-6.5-.921-17.092-.819-22.568.205-10.797 2.046-20.93 7.164-26.61 13.51-6.96 7.727-15.813 25.33-16.683 33.058-.204 1.944 0 1.688 2.508-3.07 3.275-6.193 5.936-9.775 11.258-15.046 6.806-6.755 13.1-11.053 18.73-12.793 6.243-1.945 11.565-2.252 23.59-1.484 6.09.409 12.64.665 14.534.614 9.723-.205 19.753-6.602 23.847-15.097 1.586-3.377 2.456-6.6 1.74-6.499-.205 0-1.996 1.177-3.992 2.56zM333.558 341.591c0 1.484 1.79 3.685 2.968 3.685 1.023 0 .716-2.969-.41-4.094-1.484-1.484-2.558-1.33-2.558.409zM416.97 345.992c-5.884 1.28-9.722 4.35-11.001 8.648-1.126 3.838-1.126 14.84.05 17.706 1.127 2.815 4.146 4.657 7.677 4.657 1.381 0 2.763-.204 3.121-.41.82-.51 1.69-2.916 1.69-4.758 0-1.74-.103-1.74 4.042-.46 1.842.562 3.428.92 3.53.818.103-.154-.102-1.996-.409-4.145-.307-2.15-.511-3.992-.409-4.094.154-.102 2.098.358 6.448 1.586 1.023.307 1.126.154 1.126-1.381 0-.973-.205-2.56-.46-3.531-.257-.973-.615-2.406-.768-3.173l-.307-1.433 3.582 1.33c1.995.768 3.735 1.28 3.838 1.126.46-.46-1.177-5.987-2.2-7.42-1.331-1.893-6.142-4.452-9.724-5.22-3.377-.716-6.192-.665-9.825.154z"/><path d="M556.317 349.625c-4.555.717-7.83 1.638-7.83 2.252 0 .768 2.917 3.07 7.165 5.68 2.405 1.484 5.27 3.378 6.396 4.248 3.429 2.558 9.058 8.7 13.868 15.045 2.508 3.326 6.244 7.778 8.29 9.927 3.531 3.736 7.574 7.011 8.035 6.55.358-.358-2.047-8.034-4.043-12.946-2.303-5.783-6.243-12.896-9.518-17.246-1.382-1.842-5.015-5.782-8.137-8.802-6.448-6.192-5.834-6.038-14.226-4.708z"/><path d="M520.598 349.676c-.563.103-2.303.461-3.838.768-2.866.563-8.7 3.326-8.7 4.094 0 .256.614.307 1.433.205 9.007-1.536 18.627-1.229 25.945.767 12.947 3.48 24.563 12.794 30.244 24.103 8.955 17.86 11.872 41.041 7.676 61.306-2.2 10.44-1.689 14.124 2.149 16.887 1.484 1.024 1.586 1.075 2.047.205.768-1.484 2.047-7.113 2.968-13.203 1.126-7.062 1.28-29.066.307-37.1-.358-2.969-.87-7.574-1.177-10.235-1.535-14.38-4.81-21.8-13.714-30.858-7.984-8.137-21.75-15.147-33.008-16.683-3.786-.563-10.183-.665-12.332-.256zM439.13 350.546c.613 1.587 1.33 4.708 1.483 6.5.154 1.637-.051 1.893-1.996 2.968-1.484.818-2.61 1.995-3.48 3.582-.87 1.586-2.098 2.917-3.53 3.787-1.536.92-2.354 1.79-2.56 2.814-.613 2.661-1.585 3.378-4.758 3.633-2.712.205-3.173.41-5.373 2.508l-2.354 2.354-4.401-.41c-2.56-.204-4.401-.153-4.401.103 0 .716 1.586 5.322 2.251 6.499 2.098 3.838 4.145 7.062 5.783 9.211 1.689 2.2 2.559 2.764 6.806 4.504 2.661 1.074 5.169 2.098 5.527 2.302.819.359.767-1.126-.154-3.684-1.177-3.326-1.023-3.838 1.177-3.838 1.024 0 3.685.358 5.885.767 2.252.41 4.248.666 4.452.512.563-.358.103-3.429-1.074-6.806l-.921-2.661 3.991.307c4.35.358 6.192-.153 6.192-1.842 0-.512-.921-2.764-2.047-4.913-1.126-2.2-1.944-4.043-1.842-4.196.153-.102 2.098.512 4.35 1.382 2.251.87 5.015 1.586 6.192 1.586 1.944 0 2.047-.102 2.047-1.535 0-1.74-1.229-4.401-3.275-7.113-.717-.973-1.331-1.996-1.331-2.252 0-.205 1.842-.256 4.094-.051 4.861.41 4.861.41.972-4.964-4.912-6.704-10.542-10.849-15.659-11.565-2.047-.256-2.354-.205-2.047.511z"/><path d="M513.177 357.148c-4.708.614-8.392 2.61-12.281 6.499-3.89 3.89-8.649 10.542-10.49 14.533-1.536 3.275-2.304 9.058-1.28 9.058 1.023 0 5.578-2.712 12.384-7.216 11.002-7.42 18.167-10.183 25.945-10.183 7.727 0 11.667 1.842 17.757 8.341 14.482 15.301 19.446 30.807 16.785 52.453-1.28 10.44-4.298 23.284-7.88 33.365-1.024 2.866-1.638 7.881-1.382 11.156.41 4.555 1.228 9.877 1.637 10.235.717.716 4.555-6.09 6.704-11.821.46-1.177 1.023-2.61 1.228-3.173.972-2.251 4.043-12.589 5.322-17.655 5.169-21.237 6.295-42.27 2.917-55.267-1.433-5.63-1.79-6.55-3.736-10.798-4.042-8.75-12.486-19.037-19.292-23.386-8.444-5.476-21.954-7.881-34.338-6.141zM462.26 365.08c.204 1.074.46 2.303.563 2.712.153.563-.563 1.023-2.508 1.535-2.15.665-2.61.972-2.507 1.791.05.563.255 2.457.46 4.196l.307 3.122-1.996.563c-1.125.256-2.763.665-3.735.921-1.433.358-1.894.768-2.457 2.456-.818 2.406-2.047 3.787-5.066 5.68-2.098 1.331-3.224 3.276-3.275 5.579-.051 1.637-1.075 2.047-5.731 2.302-4.606.256-4.76.308-4.913 1.536-.051.716-.358 2.149-.665 3.275l-.563 1.996-4.094-.359-4.043-.358.921 1.638c3.02 5.168 19.549 18.013 26.15 20.316 1.996.665 1.996.511.358-3.583-.716-1.74-1.177-3.223-1.074-3.326.102-.102 1.637.358 3.428 1.075 1.74.767 3.48 1.33 3.838 1.33.358 0 .768-.972.973-2.098.307-1.842.102-2.66-1.69-6.14-1.176-2.303-1.841-4.043-1.483-4.043.358 0 1.893.358 3.428.767 7.574 2.047 11.361-.102 8.905-5.015-.46-.92-1.433-2.405-2.15-3.377l-1.279-1.689 1.484.307c4.196.819 5.476.87 8.085.307 3.531-.716 3.634-1.433.82-4.196l-2.099-1.945h2.047c1.996 0 2.098-.102 2.61-2.098.358-1.177.563-4.298.563-6.96 0-3.991-.205-5.22-1.228-7.47-1.843-3.89-3.992-6.602-7.881-9.826-4.145-3.378-4.913-3.582-4.503-.921zM318.001 365.182c-.307.512 3.122 4.657 3.838 4.657.256 0 .46-1.177.46-2.559v-2.558h-1.995c-1.126 0-2.15.204-2.303.46z"/><path d="M521.365 372.142c-4.042 1.177-6.806 2.303-10.49 4.298-7.318 3.94-18.372 11.668-20.419 14.278-1.381 1.74-2.456 3.787-2.149 4.094.154.102 2.405-.973 5.015-2.457 6.294-3.48 9.979-4.656 14.278-4.656 6.703 0 11.309 2.046 16.631 7.42 6.653 6.652 8.802 13.203 8.188 24.717-.512 9.62-2.968 19.701-7.625 31.625-1.638 4.094-1.894 5.475-2.405 12.282-.307 4.196-1.024 11.309-1.587 15.812-.563 4.452-.92 8.342-.87 8.597.307.87 5.783-3.582 8.393-6.806 7.164-9.006 10.746-15.556 12.742-23.233 2.354-9.16 3.275-27.53 1.842-36.589-1.586-9.927-7.369-21.595-13.868-28.145-3.889-3.89-7.932-6.141-13.305-7.42-6.755-1.587-9.058-4.197-3.173-3.583 18.27 1.894 30.449 17.604 34.133 43.959 1.382 10.03.973 17.45-1.586 29.22-1.177 5.322-1.228 15.966-.103 18.934.41 1.126.922 2.047 1.126 2.047 1.024 0 4.913-8.853 8.035-18.423 5.833-17.808 8.187-41.092 5.27-52.913-.972-4.043-2.507-6.806-8.597-15.915-5.68-8.444-11.002-14.022-15.608-16.273-2.917-1.433-3.735-1.638-7.42-1.587-2.303 0-5.168.358-6.448.717zM485.85 378.59c-3.377 3.991-8.29 18.32-8.852 25.791-.205 3.122-.052 4.862.563 7.113 1.023 3.531 1.535 3.378 3.684-1.381 1.228-2.661 1.484-3.736 1.382-6.755-.154-3.122.05-4.043 1.637-7.42 1.28-2.815 1.945-5.323 2.508-9.468.46-3.121.972-6.499 1.126-7.573.409-2.354-.256-2.457-2.047-.307zM322.658 381.609c-.46.716-.87 1.535-.87 1.893 0 .973 1.893 1.74 3.94 1.587l1.791-.154-1.995-2.252-1.996-2.302z"/><path d="M501.407 390.769c-4.759 1.535-7.266 3.122-11.002 6.908-3.582 3.634-5.322 6.5-8.085 13.46-.717 1.739-1.433 4.093-1.638 5.27l-.358 2.15 2.712-.359c3.89-.563 4.81-.972 6.448-3.173 4.401-5.834 7.83-7.83 13.612-7.83 3.275 0 5.527 1.127 8.086 4.043 4.247 4.81 5.833 10.286 5.782 19.753 0 9.826-2.303 18.27-8.7 31.882-.972 2.098-1.74 4.042-1.74 4.4 0 .359-.204.82-.46 1.075-.665.819-2.917 6.909-3.838 10.388-1.33 5.323-.87 18.014.717 18.014.46 0 2.2-3.787 5.117-11.259 2.303-5.833 4.043-9.978 5.987-14.328.717-1.535 1.996-4.555 2.815-6.653s1.945-4.759 2.456-5.885c2.764-6.09 7.574-20.316 9.467-27.787 3.07-12.486 2.866-19.446-.818-26.713-5.527-10.9-16.734-16.529-26.56-13.356z"/><path d="M468.554 404.228c.154 2.712 0 3.377-.87 4.35-1.484 1.586-4.708 2.353-8.085 1.893l-2.815-.358 1.33 2.61c.717 1.432 1.331 3.121 1.331 3.684 0 1.382-2.047 3.429-4.35 4.4-1.688.666-1.79.87-1.79 3.02s.153 2.405 2.097 3.633c1.177.717 5.374 2.917 9.365 4.862 6.704 3.326 7.318 3.53 9.007 3.02 1.433-.41 1.893-.359 2.354.255.614.768 2.303 7.932 3.326 13.817.307 1.945 1.126 5.885 1.791 8.7.665 2.814 1.33 6.14 1.484 7.42.665 4.861 2.098 9.723 2.866 9.723 1.433 0 .716-14.278-1.126-22.517-2.303-10.388-1.689-13.203.768-3.633 1.842 7.01 3.019 10.44 3.735 10.644.768.256 2.2-3.07 2.2-4.913-.05-.716-.664-3.786-1.483-6.857-.768-3.02-1.28-5.475-1.024-5.475.921 0 2.508 2.865 3.02 5.526 1.125 5.63 1.637 7.216 2.712 8.137 1.023.921 1.023.921.716-3.685-.153-2.558-.87-6.806-1.535-9.467-.717-2.66-1.228-4.964-1.126-5.015.358-.41 1.689 2.917 2.815 7.062.665 2.405 1.484 4.76 1.842 5.271.614.921.614.921.921 0 1.996-6.652 1.28-14.124-2.047-21.39-1.484-3.276-2.354-4.043-6.397-5.68-5.117-2.099-8.801-4.095-10.49-5.681-1.28-1.228-1.842-2.61-3.48-9.007l-1.996-7.522h-5.27zM501.203 408.884c-.87.614-.614.973 2.763 4.248 2.047 1.944 5.066 5.475 6.704 7.88 4.81 7.011 5.066 7.216 5.066 4.453 0-4.248-2.405-9.877-5.782-13.51-3.276-3.582-6.5-4.708-8.751-3.07z"/><path d="M492.503 413.388c-.716.563-1.33 1.228-1.33 1.484 0 .204 1.637 1.688 3.582 3.326 5.783 4.657 7.983 8.75 8.955 16.836 1.024 8.7-.256 15.557-3.684 19.856-2.457 3.019-3.582 3.889-8.342 6.345l-3.838 1.996 2.815.153c3.89.256 6.09-.511 9.57-3.326 6.55-5.27 9.978-9.979 12.128-16.683 1.177-3.582 1.074-10.9-.205-14.533-1.996-5.629-8.75-14.226-12.486-15.761-2.61-1.075-5.527-.973-7.165.307zM492.196 468.041c0 1.842 1.024 4.708 1.535 4.401.461-.307 2.56-4.657 2.56-5.373 0-.256-.922-.512-2.048-.512-1.893 0-2.047.102-2.047 1.484zM418.608 511.897c-.665.46-1.125 1.33-1.125 2.098 0 1.126.153 1.228 1.433.972 1.484-.358 3.172-2.046 3.172-3.172 0-.973-2.047-.921-3.48.102z"/></svg>